<?xml version="1.0" encoding="utf-8"?>
<!-- Generator: Adobe Illustrator 26.5.0, SVG Export Plug-In . SVG Version: 6.00 Build 0)  -->
<svg version="1.1" xmlns="http://www.w3.org/2000/svg" xmlns:xlink="http://www.w3.org/1999/xlink" x="0px" y="0px"
	 viewBox="0 0 500 500" style="enable-background:new 0 0 500 500;" xml:space="preserve">
<style type="text/css">
	.st0{fill:#FFFFFF;}
	.st1{fill:#FFE739;}
	.st2{fill:#FFDE1F;}
	.st3{fill:#DDDDDD;}
	.st4{fill:#301019;}
	.st5{fill:#201535;}
	.st6{fill:#291C47;}
	.st7{fill:#896FB2;}
	.st8{fill:#775E99;}
	.st9{fill:#6A548C;}
	.st10{fill:#8166AA;}
	.st11{fill:#735F99;}
	.st12{fill:#66568C;}
	.st13{fill:#8C73BC;}
	.st14{fill:#FAAE7D;}
	.st15{fill:#F9C580;}
	.st16{fill:#6B5399;}
	.st17{fill:#FFBF9C;}
	.st18{fill:#F49E6E;}
	.st19{fill:#F2A479;}
	.st20{fill:#E29771;}
	.st21{fill:#FFC3A1;}
	.st22{fill:#CE8157;}
	.st23{fill:#E95E5B;}
	.st24{fill:#7F3B3B;}
	.st25{fill:#423833;}
	.st26{fill:#70263B;}
	.st27{fill:#F2F2F2;}
	.st28{fill:#8E3557;}
	.st29{fill:#DDCDC0;}
	.st30{fill:#BABABA;}
	.st31{fill:#848484;}
	.st32{fill:#F97A7A;}
	.st33{fill:#F24141;}
	.st34{font-family:'LuckiestGuy-Regular';}
	.st35{font-size:39.4754px;}
	.st36{font-size:66px;}
	.st37{fill:#9F57DD;}
	.st38{fill:#13BCAF;}
	.st39{fill:#3DE2AB;}
	.st40{fill:#F96969;}
</style>
<g id="BACKGROUND">
	<g>
		<rect class="st0" width="500" height="500"/>
	</g>
</g>
<g id="OBJECTS">
	<g>
		<circle class="st1" cx="250" cy="250" r="216.33"/>
		<circle class="st2" cx="268.5" cy="268.5" r="197.83"/>
		<g>
			<path class="st3" d="M391.91,500c4.23-19.12,6.11-52.46,6.38-74.42c1.11-0.44,2.18-0.9,3.17-1.38
				c1.83-15.07-7.33-37.61-15.55-55.41c-1.44-3.11-3.14-6.04-4.91-8.82c6.31,1.13,12.75,2.18,18.01,1.25l0,0
				c0.01,0,0.02-0.01,0.03-0.01c0.41-0.07,0.81-0.16,1.21-0.26c0.03-0.01,0.06-0.02,0.09-0.02c0.39-0.1,0.76-0.21,1.13-0.34
				c0.03-0.01,0.06-0.02,0.09-0.03c0.38-0.13,0.74-0.27,1.1-0.43c0.02-0.01,0.04-0.02,0.06-0.03c1.89-0.85,3.51-2.11,4.79-3.93
				c0.05-0.07,0.09-0.15,0.14-0.22c0.19-0.29,0.38-0.59,0.56-0.9c0.06-0.11,0.12-0.23,0.18-0.35c0.15-0.29,0.3-0.59,0.43-0.9
				c0.06-0.15,0.13-0.3,0.19-0.45c0.12-0.3,0.24-0.61,0.35-0.94c0.06-0.18,0.12-0.36,0.17-0.54c0.1-0.32,0.19-0.66,0.27-1
				c0.05-0.2,0.1-0.4,0.14-0.61c0.08-0.35,0.14-0.71,0.21-1.09c0.04-0.22,0.08-0.44,0.11-0.67c0.06-0.39,0.1-0.8,0.14-1.21
				c0.02-0.23,0.05-0.46,0.07-0.7c0.04-0.46,0.06-0.94,0.08-1.42c0.01-0.21,0.02-0.42,0.03-0.64c0.02-0.72,0.02-1.46,0-2.23
				c-1.37-71.56-10.66-86.48-10.66-86.48c-9.76-7-42.66-19.7-52-23.23c-3.17-5.98-8.01-7.44-9.84-8.35c0-0.01,0-0.02,0-0.02
				c0,0,0-0.01,0-0.01c-0.04-0.25-0.08-0.51-0.12-0.79c-0.01-0.06-0.02-0.12-0.03-0.18c-0.03-0.23-0.06-0.47-0.09-0.71
				c-0.01-0.07-0.02-0.14-0.02-0.21c-0.03-0.28-0.06-0.57-0.08-0.86c0-0.02,0-0.05-0.01-0.07c-0.01-0.07-0.01-0.14-0.01-0.2
				c2.15,0.01,4.3-0.1,6.38-0.32c0,0-0.01,0-0.01,0c0.03,0,0.05-0.01,0.08-0.01c0.37-0.04,0.73-0.08,1.09-0.13
				c0.05-0.01,0.1-0.01,0.15-0.02c0.8-0.11,1.59-0.23,2.36-0.37c0.03,0,0.05-0.01,0.08-0.02c0.34-0.06,0.68-0.13,1.01-0.2
				c0.07-0.01,0.13-0.03,0.2-0.04c0.32-0.07,0.62-0.14,0.93-0.22c0.04-0.01,0.09-0.02,0.14-0.03c0.36-0.09,0.71-0.18,1.05-0.28
				c0,0,0,0,0,0c0.32-0.09,0.63-0.19,0.94-0.29c0.08-0.02,0.15-0.05,0.22-0.08c0.24-0.08,0.47-0.17,0.7-0.25
				c0.07-0.03,0.15-0.06,0.22-0.09c0.28-0.11,0.54-0.22,0.8-0.33c0.01,0,0.02-0.01,0.04-0.02c0.27-0.12,0.53-0.25,0.78-0.37
				c0.07-0.03,0.13-0.07,0.2-0.1c0.18-0.1,0.36-0.19,0.53-0.29c0.07-0.04,0.14-0.09,0.21-0.13c0.17-0.1,0.33-0.21,0.49-0.32
				c0.05-0.03,0.1-0.07,0.15-0.1c0.2-0.14,0.39-0.29,0.56-0.44c0.04-0.03,0.07-0.07,0.11-0.1c0.13-0.12,0.26-0.24,0.38-0.37
				c0.05-0.05,0.1-0.11,0.15-0.16c0.1-0.12,0.2-0.23,0.29-0.35c0.04-0.05,0.08-0.1,0.12-0.16c0.12-0.17,0.23-0.34,0.32-0.52
				c2.53-4.84,3.55-9.13,7.43-22.73c5.32-15.25-0.01-36.6-0.81-41.42c-0.17-1-0.55-2.87-1.05-5.19c0.01,0.05,0.02,0.11,0.04,0.16
				c4.47-35.44-15.64-41.54-31.96-44.57c-5.57-2.72-13.08-3.54-20.7-2.34c-0.28,0.04-0.55,0.08-0.83,0.13
				c-5.6,0.18-11.22,1.08-16.82,3.04c0,0,0,0,0,0c-5.85,2.04-11.68,5.22-17.47,9.9c-0.65,0.52-1.26,1.07-1.85,1.63
				c-4.57,3.93-8.89,8.92-11.58,15.05c-8.09,18.42-8.62,39.89-6.34,49.4c2.28,9.51-0.91,10.18-3.42,13.84
				c-2.51,3.66-8.68,17.59,0,23.68c8.68,6.09,1.29,12.94-1.14,20.86c-2.44,7.92-1.81,17.62,2.97,17.92
				c1.69,0.11,4.41-1.45,7.21-3.14c-9.41,7.18-17.26,13.59-17.38,13.7c-7.43,5.9-10.69,17.47-3.68,37.72
				c3.37,9.72,8.16,20.57,13.21,30.41c-0.36,1.19-0.35,2.78,0.12,4.37c0,0,0,0,0,0c0,0.01,0.01,0.02,0.01,0.04
				c0.06,0.21,0.13,0.41,0.21,0.62c0,0.01,0.01,0.03,0.02,0.04c0.5,1.3,1.32,2.56,2.52,3.55c0.01,0.01,0.01,0.01,0.02,0.02
				c0.25,0.2,0.51,0.39,0.79,0.57c0,0,0,0,0,0c0.53,0.34,1.12,0.63,1.78,0.86c5.52,9.59,10.85,17.11,14.51,19.82
				c1.42,1.05,3.71,1.71,6.61,2.03c-0.05,0.08-0.11,0.17-0.16,0.25c-0.16,0.24-0.32,0.49-0.48,0.73c-0.17,0.26-0.34,0.51-0.52,0.78
				c-0.13,0.19-0.26,0.38-0.39,0.58c-8.12,12.03-21.07,28.6-22.17,51.37c1.82,1.38,4.03,2.66,6.55,3.85
				c0.44,14.81,2.27,45.72,9.73,77.43H391.91z M360.51,130.09c0,0,1,4.48,1.97,8.85c-0.68-3.02-1.4-6.16-2.04-8.94
				C360.48,130.06,360.51,130.09,360.51,130.09z"/>
			<g>
				<path class="st4" d="M351.54,191.14c0,8.53-6.92,15.45-15.45,15.45h-8.98c-8.53,0-15.45-6.92-15.45-15.45l0,0
					c0-8.53,6.92-15.45,15.45-15.45h8.98C344.62,175.69,351.54,182.61,351.54,191.14L351.54,191.14z"/>
				<g>
					<path class="st5" d="M428.19,500c5.53-24.37,7.34-71.56,6.86-92.33c-64.66,5.98-142.93,0-142.93,0s-0.53,45.44,10.59,92.33
						H428.19z"/>
					<path class="st6" d="M409.12,412.2c0.46,19.55-1.13,62.5-5.93,87.8h25c5.53-24.37,7.34-71.56,6.86-92.33
						c-64.66,5.98-142.93,0-142.93,0s-0.03,2.16,0.05,6.01C320.59,414.96,367.65,416.04,409.12,412.2z"/>
					<path class="st7" d="M379.02,214.78c0,0,45.7,16.95,57.81,25.64c-5.33,4.81-19.88,27.77-19.7,31.65
						c0.79,17.08,5.49,38.27-8.72,47.64c-13.25,8.73,4.82,21.65,13.54,40.53c8.72,18.88,18.43,42.79,16.49,58.78
						c-12.07,5.85-33.19,9.22-56.19,10.1c-3.36,0.13-9.94-15.91-9.94-15.91s-6.85,16.14-10.15,16.06
						c-31.99-0.74-63.65-6.09-76.86-16.06c1.45-30.04,22.34-49.9,28.63-62.98c6.3-13.08-9.21-54.26-14.53-62.49
						c-5.33-8.24-27.27-37.6-27.27-37.6s42.05-34.38,50.77-35.35C331.62,213.81,379.02,214.78,379.02,214.78z"/>
					<path class="st8" d="M379.02,214.78c0,0,45.7,16.95,57.81,25.64c-5.33,4.81-19.88,27.77-19.7,31.65
						c0.79,17.08,5.49,38.27-8.72,47.64c-13.25,8.73-12.27,29.4-3.55,48.28c8.72,18.88,23.58,33.43,21.64,49.42
						c-12.07,5.85-21.24,10.83-44.24,11.71c-3.36,0.13-9.94-15.91-9.94-15.91s-6.85,16.14-10.15,16.06
						c-31.99-0.74-63.65-6.09-76.86-16.06c1.45-30.04,22.34-49.9,28.63-62.98c6.3-13.08-9.21-54.26-14.53-62.49
						c-5.33-8.24-27.27-37.6-27.27-37.6s42.05-34.38,50.77-35.35C331.62,213.81,379.02,214.78,379.02,214.78z"/>
					<path class="st9" d="M293.11,238.81c11.63,9.69,1.94,34.88,25.19,31.01c-1.94,19.38,7.75,31,27.13,34.88
						c-9.32-29.82-16.87-57.85-31.22-85.81c-7.62,4.66-18.14,12.47-26.75,19.12C289.49,237.88,291.47,237.99,293.11,238.81z"/>
					<path class="st9" d="M313.94,350.23c-3.5,7.27-11.51,16.64-18.18,28.69c4.55,2.17,9.66,3.28,14.79,3.28
						c32.17-3.57,59.39-35.12,90.78-23.3c-3.1-9.73-3.92-19.34-1.62-27.05c-28.16,0.17-56.32,1.42-84.48,5.93
						C315.67,342.89,315.36,347.28,313.94,350.23z"/>
					<path class="st10" d="M436.83,240.42c-12.11-8.69-57.81-25.64-57.81-25.64s-9.69-0.2-21.1-0.33
						c25.37,7.61,51.63,17.65,72.7,33.6C433.06,244.62,435.32,241.79,436.83,240.42z"/>
					<path class="st11" d="M436.83,240.42c0,0,9.85,15.82,11.3,91.73c0.65,24.87-17.12,21.31-33.27,18.4
						c-16.15-2.91-77.17-16.2-77.17-16.2s-0.34-23.2,5.48-27.4c14.53,0.97,64.92,17.03,70.41,17.88c5.49,0.85,3.03-48.8,3.37-53.37
						C417.43,264.93,429.96,240.42,436.83,240.42z"/>
					<path class="st12" d="M416.94,310.06c-0.4,8.58-1.35,15.08-3.36,14.77c-3.05-0.47-20.01-5.66-36.95-10.33
						c-10.63,4.69-16.53,15.74-25.75,22.71c11.8,2.54,29.38,6.32,43.7,9.29c5.93-9.49,14.74-17.15,26.43-20.49
						C418.01,321.51,419.62,314.71,416.94,310.06z"/>
					<path class="st13" d="M428.77,246.96c0,0-11.31,12.84-12.27,21.24c-0.97,8.4,12.04,25.42,8.39,35.17
						c-3.65,9.75-22.47,15.52-29.65,16.42C388.06,320.68,405.06,255.6,428.77,246.96z"/>
					<path class="st8" d="M428.77,246.96c0,0-10.51,14.62-11.48,23.01c-0.97,8.4,5.59,23.65,1.94,33.39
						c-3.65,9.75-16.8,15.52-23.99,16.42C388.06,320.68,405.06,255.6,428.77,246.96z"/>
					<g>
						<path class="st13" d="M405.44,329.04c1.19,0.18,2.01-2.02,2.56-5.61c-14.82-4.11-52.58-15.66-64.83-16.48
							c-1.24,0.9-2.2,2.67-2.95,4.9C358.94,315.11,400.48,328.27,405.44,329.04z"/>
						<path class="st13" d="M448.13,332.15c-1.45-75.91-11.3-91.73-11.3-91.73c-2.11,0-5.39,3.15-8.05,6.54
							c2.29,5.35,10.01,25.98,11.22,89.4c0.2,7.75-1.39,12.74-4.16,15.85C443.28,350.89,448.48,345.82,448.13,332.15z"/>
					</g>
					<path class="st14" d="M403.08,307.44c0,0,6.56-4.64,13.7-4.01c4.07,2.72,6.17,15.48,4.71,21.45c-0.81,2.26-3.65,0.3-5.33,0
						c-1.68-0.3-5.81,0.37-7.59,1.08C406.79,326.65,403.08,307.44,403.08,307.44z"/>
					<path class="st14" d="M403.08,307.44c0,0,6.56-4.64,13.7-4.01c4.07,2.72,6.17,15.48,4.71,21.45c-0.81,2.26-3.65,0.3-5.33,0
						c-1.68-0.3-5.81,0.37-7.59,1.08C406.79,326.65,403.08,307.44,403.08,307.44z"/>
					<path class="st15" d="M416.78,303.42c-7.13-0.62-13.7,4.01-13.7,4.01s0.19,0.97,0.5,2.47c2.3-1.31,7.14-3.59,12.29-3.14
						c3.54,2.37,5.59,12.38,5.1,18.86c0.21-0.17,0.4-0.39,0.52-0.74C422.94,318.9,420.84,306.15,416.78,303.42z"/>
					<path class="st13" d="M294.03,261.08c-3.01-4.71-11.27-16.54-17.44-13.68c-10.81,5.02-17.07,17.55-8.34,42.74
						c8.72,25.19,26.48,57.49,35.2,63.95c8.72,6.46,47.8-0.97,69.76-11.3c21.96-10.33,37.46-13.89,37.46-13.89
						s-1.61-20.35-6.46-23.25c-20.99,0-63.99,17.86-74.53,16.17C321.01,320.41,298.05,267.38,294.03,261.08z"/>
					<path class="st10" d="M288.51,266.18c-3.01-4.71-5.75-21.64-11.92-18.78c-10.81,5.02-17.07,17.55-8.34,42.74
						c8.72,25.19,26.48,57.49,35.2,63.95c8.72,6.46,47.8-0.97,69.76-11.3c21.96-10.33,37.46-13.89,37.46-13.89s0-15-3.37-18.3
						c-17.04,0-54.97,10.47-73.13,15.79c-4.2,1.23-7.35,2.19-8.93,2.67C316.84,331.64,292.53,272.48,288.51,266.18z"/>
					<path class="st16" d="M306.88,304.21c-10.75,1.94-19.06,9.21-24.43,18.55c4.14,8.03,8.43,15.41,12.31,21.09
						c5.64-8.96,14.25-16.43,24.88-18.39C315.91,320.99,311.36,312.96,306.88,304.21z"/>
					<path class="st17" d="M341.34,309.19c0,0-20.13-9.51-31.76-8.38c-11.63,1.13-23.77,10.06-27.27,21.38
						c-1.68,4.9,2.8,16.89,19.76,8.65c16.96-8.24,14.29-8.72,19.3-8.56c5.01,0.16,9.61,1.58,11.38-0.04
						c1.78-1.61,5.99-1.35,5.99-1.35L341.34,309.19z"/>
					<path class="st14" d="M340.22,314.24c0,0-20.22-12-31.85-10.87c-11.63,1.13-22.56,7.51-26.05,18.83
						c-1.68,4.9,2.8,16.89,19.76,8.65c16.96-8.24,14.29-8.72,19.3-8.56c5.01,0.16,9.61,1.58,11.38-0.04
						c1.78-1.61,5.99-1.35,5.99-1.35L340.22,314.24z"/>
					<path class="st18" d="M301.39,323.17c-3.1,2.19-5.98,4.74-7.78,7.02c-0.9,1.14-1.56,2.17-1.93,2.95
						c-0.09,0.19-0.18,0.36-0.25,0.51c0.38,0.01,0.76,0.01,1.17-0.02c0,0,0-0.01,0.01-0.02c0.36-0.71,1.01-1.65,1.89-2.7
						c1.77-2.11,4.63-4.5,7.72-6.54c3.09-2.06,6.36-3.83,8.86-5.07c0.96-0.48,1.8-0.88,2.48-1.18l-0.88-1.66
						C310.23,317.7,305.64,320.14,301.39,323.17z"/>
					<path class="st18" d="M309.59,310.59c-1.96,0.91-8.35,4.04-14.02,8.39c-1.71,1.27-3.32,2.69-4.75,4.11
						c-0.75,0.67-1.33,1.47-1.95,2.15c-0.62,0.69-1.07,1.45-1.56,2.1c-0.49,0.64-0.77,1.36-1.1,1.93c-0.34,0.57-0.53,1.12-0.67,1.58
						c-0.09,0.27-0.17,0.49-0.23,0.68c0.27,0.22,0.56,0.43,0.86,0.62c0.08-0.22,0.2-0.54,0.35-0.94c0.14-0.42,0.33-0.92,0.67-1.45
						c0.33-0.53,0.6-1.18,1.08-1.78c0.48-0.6,0.92-1.31,1.53-1.95c0.62-0.63,1.19-1.38,1.94-2.01c1.41-1.33,3-2.66,4.71-3.86
						c0.83-0.62,1.71-1.19,2.57-1.75c0.85-0.58,1.73-1.07,2.56-1.58c1.69-0.99,3.29-1.85,4.69-2.55c1.98-1,3.5-1.67,4.23-1.99
						L309.59,310.59z"/>
					<path class="st18" d="M306.84,305.38c-2.51,1.12-8.85,4.15-14.39,8.54c-0.91,0.67-1.73,1.44-2.57,2.17
						c-0.84,0.72-1.57,1.56-2.32,2.3c-0.71,0.78-1.34,1.61-1.96,2.35c-0.56,0.8-1.05,1.59-1.52,2.3c-0.41,0.75-0.72,1.47-1.03,2.09
						c-0.34,0.61-0.45,1.22-0.61,1.69c-0.02,0.08-0.04,0.13-0.06,0.2c0.14,0.48,0.32,0.96,0.55,1.43c0.05-0.16,0.2-0.61,0.44-1.33
						c0.16-0.44,0.28-1.01,0.62-1.58c0.31-0.58,0.62-1.26,1.03-1.95c0.47-0.67,0.97-1.39,1.51-2.15c0.62-0.7,1.24-1.47,1.95-2.2
						c0.75-0.69,1.46-1.48,2.3-2.15c0.83-0.68,1.65-1.41,2.55-2.03c1.74-1.33,3.61-2.49,5.38-3.53c1.78-1.04,3.48-1.92,4.96-2.64
						c1.77-0.85,3.2-1.46,4.07-1.82L306.84,305.38z"/>
				</g>
				<g>
					<g>
						<g>
							<g>
								<path class="st19" d="M331.69,214.04l28.29,29.29c0,0,6.58-5.17,11.77-12.92c4.13-6.17,6.52-16.86,6.52-16.86
									c-6.09-0.85-6.45-3.9-6.45-3.9s-1.55-5.71-0.85-10.17c0.7-4.46-46.14-26.81-46.14-26.81s11.1,21.4,11.73,36.42
									C336.24,210.72,334.24,212.45,331.69,214.04z"/>
							</g>
							<g>
								<path class="st20" d="M371.38,207.72c-0.4-2.06-0.87-5.4-0.42-8.24c0.7-4.46-46.14-26.81-46.14-26.81s11.1,21.4,11.73,36.42
									c-0.3,1.63-2.3,3.36-4.86,4.95l6.85,7.09C347.21,212.26,358.16,206.64,371.38,207.72z"/>
							</g>
							<g>
								<g>
									<g>
										<path class="st14" d="M392.82,97.87c0,0,6.15,26.14,6.99,31.26c0.84,5.11,6.5,27.76,0.86,43.94
											c-4.12,14.42-5.2,18.97-7.89,24.11c-2.68,5.14-16.17,7.3-27.31,6.23c-11.14-1.07-34.37-5.23-45.05-38.57
											c0.03-0.01-11.07,13.44-14.59-11.93c-2.29-16.5,12.91-13.7,14.87-2.9c4.88-13.77-3.2-41.3,12-49.92
											C352.34,88.95,392.82,97.87,392.82,97.87z"/>
										<path class="st21" d="M374.92,149.18c0,0,0.11,6.02,2.92,8.21c2.82,2.19,3.87,2.85,3.99,3.68
											c0.12,0.82-0.28,2.48-2.68,3.45c3.13-0.71,4.88-2.32,5.2-3.76c0.33-1.45-0.67-2.11-2.25-2.48
											C380.52,157.9,376.99,155.48,374.92,149.18z"/>
										<g>
											<path class="st21" d="M399.81,129.13c-0.85-5.12-6.99-31.26-6.99-31.26s-1,0.18-2.75,0.51
												c0.47,1.99,6.15,26.21,6.96,31.11c0.84,5.12,6.5,27.76,0.86,43.94c-4.12,14.42-5.2,18.97-7.88,24.11
												c-1.51,2.89-6.42,4.83-12.41,5.8c7.21-0.77,13.46-2.84,15.19-6.16c2.68-5.14,3.76-9.69,7.89-24.11
												C406.31,156.89,400.65,134.24,399.81,129.13z"/>
										</g>
										<path class="st22" d="M375.65,151.14c0,0,0.15,0.31,0.45,0.82c0.29,0.51,0.73,1.24,1.34,2.04c0.6,0.81,1.36,1.7,2.31,2.48
											c0.48,0.38,1,0.74,1.56,1.01c0.28,0.13,0.58,0.25,0.88,0.34c0.15,0.05,0.3,0.08,0.46,0.11c0.2,0.05,0.32,0.06,0.53,0.14
											c0.75,0.22,1.51,0.85,1.67,1.71c0.16,0.84-0.12,1.61-0.5,2.2c-0.79,1.19-1.92,1.84-2.88,2.23
											c-0.98,0.4-1.85,0.51-2.44,0.58c-0.3,0.04-0.54,0.04-0.69,0.04c-0.16,0-0.25,0-0.25,0s0.33-0.09,0.9-0.25
											c0.56-0.17,1.36-0.45,2.22-0.93c0.43-0.24,0.88-0.52,1.29-0.88c0.41-0.35,0.82-0.77,1.09-1.26
											c0.29-0.48,0.46-1.05,0.34-1.53c-0.09-0.48-0.5-0.87-1.03-1.04c-0.11-0.05-0.33-0.09-0.45-0.13
											c-0.18-0.05-0.36-0.09-0.53-0.15c-0.34-0.11-0.67-0.26-0.99-0.43c-0.63-0.33-1.18-0.75-1.66-1.19
											c-0.97-0.9-1.67-1.9-2.21-2.78C376.02,152.46,375.65,151.14,375.65,151.14z"/>
										<path class="st23" d="M359.98,176.61c0,0,11.76,13.28,21.54,10.2c9.79-3.09,9.38-16.51,9.22-17.54
											C386.21,173,359.98,176.61,359.98,176.61z"/>
										<path class="st24" d="M388.44,170.52c-1.06,0.44-2.36,0.88-3.81,1.3c-7.09,2.32-20.77,4.96-20.77,4.96
											s10.68,6.32,17.13,4.28C386.79,179.23,388.36,172,388.44,170.52z"/>
										<path class="st0" d="M386.37,171.66c-0.16,0.05-1.53,0.09-1.69,0.14c-0.09,0.3,0.19,0.6-0.82,0.89
											c-5.55,1.82-15.14,3.83-19.04,4.62c0.53,0.28,1.26,0.66,2.13,1.07c2.94,1.07,6.54,1.59,9.79,1.24
											c2.57-0.28,8.21-2.46,9.06-3.63C386.68,174.25,386.37,172.57,386.37,171.66z"/>
										<path class="st23" d="M380.09,172.25l2.19-2.57c0,0,7.85,0.96,9.53-2c-1.31,3.58-4.8,5.81-12.32,8.26
											c-7.52,2.45-13.4,2.02-20,0.43c6.44-0.26,15.26-5.27,15.52-5.73C377.2,172.12,380.09,172.25,380.09,172.25z"/>
										<path class="st25" d="M374.65,129.19c0,0,0.09-0.38,0.38-1.04c0.3-0.64,0.82-1.51,1.65-2.42
											c0.41-0.46,0.93-0.88,1.48-1.35c0.57-0.43,1.26-0.77,1.97-1.15c0.72-0.33,1.55-0.52,2.37-0.75
											c0.83-0.18,1.71-0.13,2.58-0.17c0.25,0.01,0.36-0.02,0.72,0.02l0.55,0.08l1.09,0.18c0.69,0.09,1.51,0.36,2.23,0.58
											c1.47,0.47,2.69,1.09,3.69,1.77c1.01,0.63,1.75,1.33,2.22,1.83c0.48,0.52,0.69,0.86,0.69,0.86s-1.59-0.29-3.73-0.63
											c-1.07-0.15-2.34-0.35-3.59-0.47c-0.65-0.06-1.22-0.17-1.99-0.21l-1.1-0.1l-0.55-0.06l-0.4,0.02
											c-0.62,0.03-1.24-0.04-1.85,0.02c-0.6,0.13-1.21,0.15-1.8,0.27c-0.57,0.19-1.16,0.28-1.71,0.47
											c-0.52,0.23-1.08,0.37-1.56,0.58c-0.96,0.43-1.8,0.84-2.39,1.15C375.01,128.98,374.65,129.19,374.65,129.19z"/>
										<path class="st25" d="M357.01,131.3c0,0-0.51-0.07-1.36-0.11c-0.85-0.05-2.05-0.06-3.44,0.04
											c-0.69,0.06-1.43,0.17-2.2,0.27c-0.77,0.13-1.55,0.33-2.36,0.52c-0.8,0.21-1.61,0.5-2.42,0.81
											c-0.81,0.3-1.62,0.66-2.41,1.07l-1.14,0.58c-0.39,0.25-0.87,0.5-1.21,0.72c-0.66,0.45-1.42,0.9-2.08,1.43
											c-0.66,0.53-1.32,1.03-1.92,1.56c-0.6,0.53-1.16,1.04-1.68,1.52c-2.06,1.96-3.47,3.44-3.47,3.44s0.22-2.08,1.68-4.79
											c0.71-1.36,1.73-2.87,3.1-4.27c0.68-0.7,1.41-1.4,2.32-2.05c0.44-0.33,0.81-0.56,1.23-0.83c0.55-0.32,0.95-0.52,1.44-0.78
											c0.95-0.47,1.93-0.88,2.94-1.16c1-0.32,2.03-0.47,3.01-0.6c0.99-0.13,1.96-0.1,2.86-0.05c0.91,0.06,1.75,0.22,2.51,0.41
											c1.52,0.38,2.7,0.96,3.46,1.43C356.64,130.94,357.01,131.3,357.01,131.3z"/>
										<path class="st25" d="M334.85,148.63c0,0,1.7,0.46,4.17,0.26c1.23-0.13,2.63-0.45,3.96-1.13c0.68-0.36,1.25-0.75,1.94-1.3
											c0.68-0.52,1.59-1.03,2.42-1.33c0.87-0.3,1.76-0.52,2.65-0.64c0.48-0.04,0.79-0.1,1.41-0.08
											c0.41,0.03,0.79,0.03,1.27,0.12c1.79,0.29,3.26,1.1,4.28,2.04c1.01,0.96,1.58,1.95,1.84,2.69
											c0.29,0.73,0.28,1.18,0.28,1.18s-0.2-0.39-0.67-0.95c-0.47-0.56-1.22-1.28-2.23-1.9c-0.51-0.3-1.07-0.59-1.71-0.79
											c-0.62-0.2-1.33-0.39-2-0.42c-0.31-0.06-0.75-0.06-1.15-0.07c-0.21,0-0.72,0.06-1.07,0.11c-0.78,0.1-1.55,0.25-2.3,0.48
											c-0.78,0.24-1.41,0.49-2.11,0.92c-0.69,0.41-1.51,0.91-2.29,1.21c-1.6,0.62-3.19,0.78-4.51,0.7
											c-1.32-0.08-2.38-0.38-3.1-0.62C335.22,148.83,334.85,148.63,334.85,148.63z"/>
										<path class="st25" d="M397.2,137.85c-0.67,0.78-1.51,1.38-2.44,1.88c-0.94,0.46-2.01,0.81-3.17,0.76
											c-0.29-0.03-0.58-0.02-0.87-0.11l-0.77-0.19c-0.25-0.07-0.42-0.08-0.64-0.13c-0.22-0.02-0.44-0.06-0.66-0.08
											c-0.88-0.08-1.76,0-2.65,0.16l0.07-0.02c-1.23,0.36-2.31,1.01-3.17,2.04c-0.84,1.02-1.49,2.31-1.81,3.77
											c-0.23-0.73-0.21-1.53-0.11-2.3c0.12-0.77,0.35-1.55,0.75-2.26c0.39-0.72,0.93-1.38,1.59-1.9
											c0.65-0.54,1.42-0.9,2.21-1.17l0,0l0.06-0.02c1.05-0.27,2.18-0.31,3.28-0.16c0.28,0.02,0.54,0.1,0.81,0.16
											c0.26,0.08,0.58,0.16,0.8,0.25c0.22,0.09,0.49,0.18,0.66,0.24c0.19,0.08,0.39,0.11,0.59,0.17
											C393.43,139.24,395.38,138.66,397.2,137.85z"/>
									</g>
									<path class="st26" d="M395,107.04c0,0-6.05-7.99-14.74-9.17c-8.68-1.18-7.12,5.81-19.01,4.59
										c-11.89-1.23-15.96-3.6-23.15-0.07c-7.2,3.54-11.35,9.46-11.8,20.35c-0.45,10.88,1.16,15.29-0.71,20.83
										c-1.88,5.54-2.99,13.31-5.72,4.18c-1.45-2.89-2.57,1.73-3.2,4.2c-0.63,2.48,3.75,10.77,3.75,10.77s1.34,7.71,9.59,21.54
										c-7.09-0.1-25.94,1.21-33.45-26.27c-7.51-27.48-8.8-55.7,9.04-70.09c17.83-14.39,36.05-15.45,53.88-12.32
										c17.84,3.13,44.48,6.64,39.24,48.22C397.81,119.61,395,107.04,395,107.04z"/>
									<path class="st14" d="M320.71,150c-1.97-10.8-17.16-13.61-14.87,2.9c3.52,25.37,14.61,11.92,14.59,11.93
										c0,0,0.37-0.57,0.39-0.51l1.15-12.41C321.85,152.28,320.96,151.12,320.71,150z"/>
								</g>
							</g>
						</g>
					</g>
				</g>
				<path class="st27" d="M335.88,203.33c0,0,8.58,28.37,24.56,39.19c11.95-9.04,10.95-30.11,10.79-35.6
					c3.88,1.94,20.58,6.21,10.21,46.58c-4.68-3.55-20.99-9.04-20.99-9.04s-12.92,5.97-16.15,14.05
					c-11.47-9.04-19.78-36.39-19.01-41.53C326.05,211.84,335.88,203.33,335.88,203.33z"/>
				<path class="st26" d="M324.14,77.39c0,0-24.21,8.65-32.79,28.19c-8.58,19.54-9.15,42.31-6.72,52.4
					c2.42,10.09-0.97,10.8-3.63,14.69c-2.66,3.88-9.2,18.66,0,25.12c9.2,6.46,1.37,13.73-1.21,22.12
					c-2.58,8.4-1.92,18.69,3.15,19.01c5.06,0.33,18.77-13.41,18.77-4.72c0,8.69,1.36,19.37,9.13,22.69
					c9.07,3.88,14.84,11.3,14.4,21.96c-0.45,10.66,9.61,18.39,22.49,18.08c-4.23-4.19,0.03-13.43,5.09-22.15
					c5.06-8.72,4.54-23.7-5.14-34.03c-9.67-10.33-16.63-16.18-12.83-23.43c0,0,5.71-6.17,2.54-13.64
					c-3.18-7.47-13.09-19.71-11.08-27.98c2.01-8.26,3.46-14.7-1.07-20.2c-4.53-5.49-7.98-22.03-3.27-29.41
					C326.67,118.71,324.14,77.39,324.14,77.39z"/>
				<path class="st28" d="M294.68,135.66c0,0-0.1,0.12-0.29,0.35c-0.21,0.22-0.42,0.61-0.66,1.13c-0.5,1.05-0.95,2.66-1.41,4.78
					c-0.44,2.12-1.8,4.51-1.69,7.47c-0.15,3.03,0.7,6.15,2.02,9.67c0.28,0.88,0.56,1.78,0.84,2.7c0.2,0.97,0.4,1.95,0.61,2.96
					c0.15,1,0.25,2.03,0.38,3.07c0.09,1.04,0.11,2.1,0.17,3.18c-0.02,1.18-0.07,2.15-0.18,3.28c-0.25,1.14-0.46,2.35-0.97,3.38
					c-0.86,2.18-2.11,4.07-3.05,6.14c-0.99,2-1.75,4.22-1.99,6.36c-0.23,2.17,0.92,4.01,2.6,5.69c0.83,0.86,1.68,1.71,2.59,2.44
					c0.85,0.7,1.9,1.36,2.91,1.99c2.05,1.27,4.34,2.42,6.24,4.35c1.96,1.9,2.85,4.82,2.73,7.43c-0.07,2.54-0.49,4.97-0.66,7.34
					c-0.17,2.36-0.16,4.73,0.64,6.71c0.42,0.97,1.07,1.77,1.88,2.37c0.79,0.58,1.94,0.98,2.95,1.34c2.12,0.75,4.58,1.38,6.32,3.33
					c0.85,0.92,1.24,2.35,1.34,3.45c0.12,1.16,0.08,2.28-0.01,3.36c-0.07,1.07-0.29,2.16-0.56,3.19c-0.26,1.01-0.48,1.95-0.57,2.87
					c-0.09,0.92,0.08,1.78,0.4,2.57c0.17,0.27,0.47,0.84,0.74,1.09c0.29,0.28,0.53,0.59,0.91,0.83c2.86,2.07,6.38,2.46,9.19,3.71
					c1.42,0.61,2.65,1.59,3.31,2.79c0.65,1.21,0.94,2.38,1.1,3.46c0.37,2.19,0.1,3.89-0.05,5.04c-0.05,0.29-0.09,0.54-0.13,0.75
					c-0.08,0.21-0.15,0.38-0.2,0.52c-0.11,0.28-0.16,0.42-0.16,0.42s0.04-0.15,0.14-0.43c0.04-0.14,0.1-0.32,0.16-0.53
					c0.03-0.22,0.06-0.47,0.09-0.76c0.09-1.14,0.22-2.86-0.21-4.94c-0.2-1.04-0.56-2.21-1.19-3.26c-0.65-1.07-1.78-1.89-3.13-2.41
					c-2.7-1.08-6.28-1.25-9.56-3.5c-0.41-0.25-0.79-0.65-1.17-1.04c-0.39-0.42-0.54-0.72-0.88-1.25c-0.45-0.98-0.68-2.08-0.6-3.16
					c0.07-1.06,0.29-2.11,0.52-3.1c0.21-0.97,0.4-1.94,0.44-2.99c0.08-2.03,0.12-4.28-1.11-5.65c-1.31-1.41-3.46-2.08-5.66-2.79
					c-1.16-0.41-2.25-0.75-3.4-1.53c-1.08-0.77-1.97-1.86-2.5-3.09c-1.01-2.47-0.99-5.06-0.84-7.52c0.15-2.48,0.54-4.89,0.58-7.27
					c0.05-2.28-0.64-4.46-2.25-6.03c-1.56-1.63-3.72-2.79-5.83-4.1c-1.06-0.68-2.1-1.33-3.13-2.19c-0.99-0.81-1.86-1.7-2.7-2.6
					c-0.85-0.9-1.72-1.89-2.3-3.12c-0.34-0.59-0.49-1.27-0.65-1.93c-0.09-0.71-0.17-1.45-0.08-2c0.3-2.58,1.16-4.86,2.22-6.99
					c1-2.12,2.25-4.07,3.09-6.01c0.51-0.97,0.67-1.95,0.94-2.91c0.13-1.02,0.22-2.2,0.26-3.14c-0.03-1.04-0.02-2.07-0.08-3.08
					c-0.1-1.01-0.17-2.01-0.29-2.98c-0.17-0.95-0.34-1.89-0.5-2.81c-0.26-0.93-0.52-1.83-0.77-2.72c-0.54-1.72-1.13-3.46-1.44-5.15
					c-0.27-1.7-0.42-3.39-0.26-4.86c0.02-1.48,0.38-3.01,0.85-4.19c0.46-1.22,0.89-2.31,1.19-3.36c0.54-2.08,1.13-3.71,1.68-4.72
					c0.28-0.51,0.52-0.89,0.74-1.1C294.58,135.77,294.68,135.66,294.68,135.66z"/>
				<path class="st28" d="M308.6,175.83c0,0,0.01,0.43,0.02,1.25c-0.02,0.8-0.28,2.03-0.89,3.44c-0.62,1.4-1.55,3.03-2.5,4.89
					c-0.21,0.47-0.42,0.96-0.65,1.47c-0.15,0.5-0.33,1.08-0.45,1.56c-0.16,1.23-0.26,2.32,0.08,3.53c0.56,2.4,2.23,4.68,4.42,6.57
					c2.12,1.88,5.14,3.46,6.92,6.65l0.31,0.6c0.06,0.13,0.08,0.12,0.17,0.38l0.09,0.29l0.36,1.18c0.31,0.73,0.3,1.76,0.4,2.67
					c0.11,0.94-0.15,1.82-0.22,2.74c-0.19,0.87-0.57,1.79-0.82,2.58c-0.35,0.83-0.6,1.54-0.72,2.28c-0.16,0.76-0.16,1.53-0.07,2.28
					c0.1,0.75,0.35,1.47,0.7,2.15c0.21,0.31,0.39,0.69,0.61,0.95c0.27,0.33,0.54,0.7,0.81,1.01c2.04,2.4,5.33,3.7,8.34,5.5
					c1.58,0.99,3,2.53,3.49,4.41c0.24,0.92,0.35,1.84,0.29,2.73c-0.04,0.89-0.22,1.81-0.38,2.58c-0.33,1.62-0.59,3.01-0.06,4.31
					c0.2,0.49,0.65,1.05,1.15,1.48c0.54,0.42,1.13,0.81,1.78,1.13c2.52,1.35,5.55,2.01,7.37,4.54c0.31,0.57,0.61,1.14,0.9,1.69
					c0.21,0.63,0.4,1.25,0.58,1.86c0.18,0.6,0.2,1.19,0.29,1.76c0.1,0.57,0.14,1.12,0.14,1.66c0.01,0.54,0.03,1.06,0.04,1.56
					c-0.03,0.5-0.06,0.98-0.08,1.44c-0.03,0.93-0.17,1.76-0.26,2.52c-0.22,1.51-0.47,2.69-0.68,3.48c-0.2,0.79-0.31,1.21-0.31,1.21
					s0.07-0.43,0.21-1.23c0.15-0.8,0.27-1.99,0.41-3.5c0.04-0.76,0.13-1.59,0.1-2.5c0-0.45,0-0.93-0.01-1.42
					c-0.04-0.49-0.09-0.99-0.13-1.51c-0.03-0.52-0.1-1.05-0.23-1.59c-0.13-0.53-0.18-1.12-0.38-1.64c-0.18-0.53-0.37-1.06-0.56-1.61
					c-0.31-0.54-0.64-1.09-0.96-1.66c-0.62-0.85-1.8-1.57-3.02-2.12c-1.24-0.57-2.62-1.03-4.02-1.69c-1.39-0.67-2.93-1.5-3.8-3.37
					c-0.31-0.71-0.53-1.79-0.43-2.62c0.04-0.88,0.2-1.72,0.35-2.51c0.16-0.83,0.29-1.53,0.32-2.3c0.04-0.76-0.07-1.51-0.26-2.22
					c-0.38-1.4-1.44-2.52-2.73-3.33c-2.82-1.69-6.32-2.89-8.92-5.84c-0.3-0.35-0.54-0.69-0.81-1.03c-0.33-0.42-0.52-0.83-0.78-1.25
					c-0.44-0.87-0.75-1.81-0.87-2.78c-0.12-0.97-0.09-1.95,0.11-2.87c0.17-0.95,0.53-1.87,0.85-2.61c1.41-2.98,1.23-6.2-0.09-8.97
					c-1.41-2.62-4.15-4.32-6.41-6.42c-2.22-2.08-4-4.64-4.53-7.37c-0.33-1.34-0.17-2.8,0.07-3.9c0.19-0.66,0.41-1.18,0.61-1.74
					c0.26-0.51,0.52-1.01,0.77-1.49c1.09-1.85,2.1-3.38,2.8-4.72c0.66-1.35,1.04-2.47,1.12-3.29
					C308.57,176.26,308.6,175.83,308.6,175.83z"/>
				<g>
					<path class="st29" d="M362.79,190.15c-2.49-0.52-4.92,1.07-5.45,3.55c-0.02,0.07-0.01,0.15-0.02,0.22
						c-36,3.18-43.86-25.85-44.17-27.1l-1.82,0.46c0.07,0.27,6.05,22.61,30.34,27.73c4.57,0.96,9.8,1.28,15.74,0.77
						c0.42,1.64,1.72,2.99,3.49,3.36c2.49,0.52,4.92-1.07,5.45-3.55C366.87,193.11,365.28,190.68,362.79,190.15z"/>
					<g>
						<path class="st30" d="M341.67,191.14c-24.29-5.12-30.27-27.46-30.34-27.73l1.82-0.46c0.32,1.26,8.29,30.78,45.06,27.03
							l0.19,1.87C352.04,192.49,346.5,192.16,341.67,191.14z"/>
					</g>
					<path class="st25" d="M366.34,191.72c-0.52,2.49-2.96,4.08-5.45,3.55l0,0c-2.49-0.52-4.08-2.96-3.55-5.45l0,0
						c0.52-2.49,2.96-4.08,5.45-3.55l0,0C365.28,186.8,366.87,189.24,366.34,191.72L366.34,191.72z"/>
					<g>
						<path class="st30" d="M364.83,76.52c0,0-37.67-4.39-48,19.71c-10.33,24.09-3.49,57.57-3.49,57.57l-3.86,1
							c0,0-5.79-25.26,0-51.93C315.26,76.2,348.21,68.39,364.83,76.52z"/>
						<path class="st31" d="M363.81,76.67c0,0-37.67-4.39-48,19.71c-10.33,24.09-3.49,57.57-3.49,57.57l-3.86,1
							c0,0-5.79-25.26,0-51.93C314.25,76.36,347.19,68.55,363.81,76.67z"/>
						<g>
							<path class="st32" d="M320.78,158.87c0.81,5.26-0.98,10.03-8.53,11.99l1.69-2.17c-4.54,0.16-8.88-3.98-9.69-9.24l-3.46-4.72
								c-0.81-5.26,4.93-9.69,9.47-9.85l0.08,0c4.54-0.16,8.88,3.98,9.7,9.24L320.78,158.87z"/>
							<path class="st33" d="M317.44,161.27c0.81,5.26-2.21,9.66-6.75,9.82l-0.08,0c-4.54,0.16-8.88-3.98-9.69-9.24l-0.74-4.75
								c-0.81-5.27,2.21-9.66,6.75-9.82l0.08,0c4.54-0.16,8.88,3.98,9.7,9.24L317.44,161.27z"/>
						</g>
					</g>
				</g>
			</g>
		</g>
		<g>
			<g>
				<text transform="matrix(1 0 0 1 92.04 162.061)"><tspan x="0" y="0" class="st0 st34 st35">CONTACT</tspan><tspan x="52.29" y="39.37" class="st0 st34 st35">US!</tspan></text>
			</g>
			<g>
				<text transform="matrix(1 0 0 1 138.0244 257.6973)"><tspan x="0" y="0" class="st0 st34 st36">24</tspan><tspan x="-24.87" y="31.37" class="st0 st34 st35">Hours</tspan></text>
			</g>
		</g>
		<g>
			<g>
				
					<ellipse transform="matrix(0.2298 -0.9732 0.9732 0.2298 -211.7824 404.3331)" class="st37" cx="149.56" cy="335.97" rx="29.22" ry="29.22"/>
				<g>
					<g>
						<path class="st0" d="M159.61,321.15l-4.01,7.45c2.52,1.24,1.43,4.52,0.34,6.55l-3.92,7.28c-1.1,2.04-3.2,4.4-5.66,3.33
							l-4.01,7.45c5.29,2.55,10.14-1.49,12.44-5.75l6.87-12.76C163.96,330.43,164.81,324.82,159.61,321.15z"/>
					</g>
					<g>
						<path class="st0" d="M155.21,327.49c-0.55,1.02-1.83,1.41-2.85,0.86l0,0c-1.03-0.55-1.41-1.83-0.86-2.85l3.26-6.06
							c0.55-1.02,1.83-1.41,2.85-0.86l0,0c1.03,0.55,1.41,1.83,0.86,2.85L155.21,327.49z"/>
					</g>
					<g>
						<path class="st0" d="M141.97,352.07c-0.55,1.02-1.83,1.41-2.85,0.86l0,0c-1.03-0.55-1.41-1.83-0.86-2.85l3.26-6.06
							c0.55-1.02,1.83-1.41,2.86-0.86l0,0c1.02,0.55,1.41,1.83,0.86,2.85L141.97,352.07z"/>
					</g>
				</g>
			</g>
			<g>
				
					<ellipse transform="matrix(0.7071 -0.7071 0.7071 0.7071 -201.9366 240.8588)" class="st38" cx="189.77" cy="364.19" rx="29.22" ry="29.22"/>
				<g>
					<g>
						<path class="st0" d="M206.78,375.41h-34.01c-1.45,0-2.62-1.17-2.62-2.62v-21.11c0-1.44,1.17-2.62,2.62-2.62h34.01
							c1.44,0,2.62,1.17,2.62,2.62v21.11C209.4,374.24,208.22,375.41,206.78,375.41z M172.77,350.96c-0.4,0-0.73,0.33-0.73,0.73
							v21.11c0,0.4,0.33,0.73,0.73,0.73h34.01c0.4,0,0.73-0.33,0.73-0.73v-21.11c0-0.4-0.33-0.73-0.73-0.73H172.77z"/>
					</g>
					<g>
						<path class="st0" d="M207.86,349.35c-0.36-0.17-0.71-0.28-1.08-0.28h-34.01c-0.45,0-0.88,0.13-1.32,0.39l-0.32,0.19v1.14
							l16.37,16.37c0.61,0.61,1.42,0.94,2.28,0.94c0.86,0,1.67-0.33,2.28-0.94l15.8-15.8V349.35z M190.72,365.83
							c-0.25,0.25-0.59,0.39-0.94,0.39c-0.36,0-0.69-0.14-0.95-0.39l-14.87-14.87h31.63L190.72,365.83z"/>
					</g>
				</g>
			</g>
			<g>
				<path class="st39" d="M264.12,337.58c0,16.14-13.08,29.22-29.22,29.22c-16.14,0-29.22-13.08-29.22-29.22
					c0-16.14,13.08-29.22,29.22-29.22C251.04,308.36,264.12,321.44,264.12,337.58z"/>
				<g>
					<g>
						<path class="st0" d="M235.15,358.38l-0.66-0.68c-0.54-0.55-13.25-13.69-13.25-22.94c0-6.73,6.25-12.21,13.92-12.21
							c7.67,0,13.92,5.47,13.92,12.21c0,9.7-12.71,22.41-13.26,22.95L235.15,358.38z M235.16,324.44c-6.64,0-12.03,4.63-12.03,10.32
							c0,7.35,9.43,18.08,12.04,20.91c2.63-2.77,12.02-13.21,12.02-20.91C247.19,329.07,241.79,324.44,235.16,324.44z"/>
					</g>
					<g>
						<path class="st0" d="M240.74,336.26c0,3.23-2.62,5.84-5.84,5.84c-3.22,0-5.84-2.61-5.84-5.84c0-3.22,2.61-5.84,5.84-5.84
							C238.13,330.42,240.74,333.04,240.74,336.26z"/>
					</g>
				</g>
			</g>
			<g>
				
					<ellipse transform="matrix(0.4927 -0.8702 0.8702 0.4927 -249.5769 270.6732)" class="st40" cx="107.36" cy="349.39" rx="29.22" ry="29.22"/>
				<g>
					<g>
						<path class="st0" d="M108.23,362.94c4.03,0,7.62-1.03,10.95-3.31l1.4,1.75c-4.16,3.09-8.56,3.81-12.45,3.81
							c-9.36,0-15.91-5.5-15.91-15.06v-1.25c0-9.56,6.49-15.06,15.75-15.06c7.86,0,14.55,3.87,14.55,12.5v0.94
							c0,7.5-3.83,9.44-8.99,9.44h-2.2l-0.37-2.12c-0.93,1.41-2.5,2.5-4.96,2.5c-4.46,0-6.39-3.34-6.39-7.31v-0.81
							c0-3.97,1.93-7.31,6.39-7.31c2.46,0,4.03,1.13,4.96,2.53l0.37-2.16h2.63l-0.27,4.47v8c4.03-0.12,6.26-1.38,6.26-7.22v-0.94
							c0-7.59-5.83-10.25-11.89-10.25h-0.2c-7.76,0-13.18,4.59-13.18,12.81v1.25c0,8.4,5.49,12.81,13.35,12.81H108.23z
							 M106.83,344.19c-2.8,0-4.03,1.97-4.03,4.75v0.81c0,2.78,1.23,4.75,4.03,4.75c1.93,0,3.23-1.25,3.83-2.16v-6
							C110.06,345.44,108.76,344.19,106.83,344.19z"/>
					</g>
				</g>
			</g>
		</g>
	</g>
</g>
<g id="DESIGNED_BY_FREEPIK">
</g>
</svg>
