<?xml version="1.0" encoding="utf-8"?>
<!-- Generator: Adobe Illustrator 26.5.0, SVG Export Plug-In . SVG Version: 6.00 Build 0)  -->
<svg version="1.1" id="Capa_1" xmlns="http://www.w3.org/2000/svg" xmlns:xlink="http://www.w3.org/1999/xlink" x="0px" y="0px"
	 viewBox="0 0 178.33 43.06" style="enable-background:new 0 0 178.33 43.06;" xml:space="preserve">
<style type="text/css">
	.st0{fill:#FBC027;}
</style>
<g>
	<polygon class="st0" points="78.34,6.28 73.15,19.11 67.95,6.28 59.66,6.28 69.02,29.34 63.47,43.06 71.76,43.06 86.62,6.28 	"/>
	<path class="st0" d="M100.37,6.28c-8.07,0-14.62,6.54-14.62,14.62s6.54,14.62,14.62,14.62c8.07,0,14.62-6.54,14.62-14.62
		S108.44,6.28,100.37,6.28z M100.37,27.23c-3.5,0-6.33-2.84-6.33-6.34c0-3.5,2.84-6.33,6.33-6.33c3.5,0,6.34,2.84,6.34,6.33
		C106.7,24.39,103.87,27.23,100.37,27.23z"/>
	<path class="st0" d="M146.67,20.89c0-8.07-6.54-14.62-14.62-14.62c-2.27,0-4.42,0.53-6.33,1.46V6.28h-8.28v14.62v0v0v14.62h8.28
		v-1.46v0V20.89c0-3.5,2.84-6.33,6.33-6.33c3.5,0,6.34,2.84,6.34,6.33v13.16l0,0v1.46h8.28V20.89L146.67,20.89L146.67,20.89z"/>
	<path class="st0" d="M49.58,26.25c-0.97,0.61-2.12,0.98-3.36,0.98c-2.15,0-4.05-1.07-5.19-2.71h6.81h3.57h8.95
		c0.3-1.16,0.47-2.37,0.47-3.62c0-8.07-6.55-14.62-14.62-14.62c-8.07,0-14.62,6.54-14.62,14.62s6.54,14.62,14.62,14.62
		c3.53,0,6.76-1.25,9.29-3.33L49.58,26.25z M46.22,14.56c2.3,0,4.31,1.23,5.42,3.06H40.81C41.92,15.79,43.92,14.56,46.22,14.56z"/>
	<path class="st0" d="M170,0v7.74c-1.92-0.93-4.06-1.46-6.34-1.46c-8.07,0-14.62,6.54-14.62,14.62c0,8.07,6.54,14.62,14.62,14.62
		c2.27,0,4.42-0.53,6.34-1.46v1.46h8.33V20.8V0H170z M163.66,27.23c-3.5,0-6.33-2.84-6.33-6.34c0-3.5,2.84-6.33,6.33-6.33
		c3.5,0,6.34,2.84,6.34,6.33C170,24.39,167.16,27.23,163.66,27.23z"/>
	<path class="st0" d="M0,0v20.8v14.72h8.33v-1.46c1.92,0.93,4.06,1.46,6.34,1.46c8.07,0,14.62-6.55,14.62-14.62
		c0-8.07-6.55-14.62-14.62-14.62c-2.27,0-4.42,0.53-6.34,1.46V0H0z M8.33,20.89c0-3.5,2.84-6.33,6.34-6.33
		c3.5,0,6.33,2.84,6.33,6.33c0,3.5-2.84,6.34-6.33,6.34C11.17,27.23,8.33,24.39,8.33,20.89z"/>
</g>
</svg>
