<?xml version="1.0" encoding="utf-8"?>
<!-- Generator: Adobe Illustrator 26.5.0, SVG Export Plug-In . SVG Version: 6.00 Build 0)  -->
<svg version="1.1" id="Capa_1" xmlns="http://www.w3.org/2000/svg" xmlns:xlink="http://www.w3.org/1999/xlink" x="0px" y="0px"
	 viewBox="0 0 510.89 153.05" style="enable-background:new 0 0 510.89 153.05;" xml:space="preserve">
<style type="text/css">
	.st0{fill:#E20614;}
	.st1{fill:#FFED00;}
</style>
<g>
	<g>
		<path class="st0" d="M112.99,74.57v1.65H83.96c-1.62,0-2.88,0.49-3.79,1.48c-0.91,0.98-1.36,2.29-1.36,3.9
			c0,1.64,0.45,2.94,1.36,3.89c0.91,0.95,2.17,1.43,3.79,1.43h19.62h0.07c0.92,0.02,1.89,0.15,2.92,0.38
			c1.03,0.23,2.05,0.59,3.07,1.07c1.02,0.48,1.98,1.09,2.9,1.82c0.92,0.73,1.73,1.61,2.44,2.64c0.71,1.03,1.27,2.21,1.69,3.54
			c0.31,0.99,0.5,2.08,0.58,3.26l10.4-10.4L112.99,74.57z"/>
		<polygon class="st0" points="16.51,72.72 0,89.22 16.51,105.73 		"/>
		<path class="st0" d="M70.67,114.73v-8.53h32.91c1.64,0,2.91-0.48,3.82-1.44c0.91-0.96,1.36-2.25,1.36-3.87
			c0-0.79-0.12-1.51-0.36-2.17c-0.24-0.66-0.59-1.22-1.03-1.71c-0.45-0.48-1-0.85-1.64-1.12c-0.65-0.26-1.36-0.39-2.15-0.39H83.96
			c-1.38,0-2.87-0.25-4.46-0.74c-1.6-0.49-3.08-1.28-4.45-2.38c-1.37-1.09-2.5-2.53-3.41-4.3c-0.91-1.77-1.36-3.94-1.36-6.5
			c0-2.56,0.45-4.72,1.36-6.48c0.91-1.76,2.04-3.19,3.41-4.3c1.37-1.1,2.85-1.9,4.45-2.4c1.6-0.49,3.08-0.74,4.46-0.74h22.15
			L63.82,25.4L21.54,67.69h31.65c1.9,0,3.51,0.34,4.82,1.03c1.31,0.69,2.38,1.55,3.2,2.59c0.82,1.04,1.41,2.16,1.77,3.36
			c0.36,1.2,0.54,2.33,0.54,3.38v5.45c0,1.95-0.24,3.69-0.72,5.22c-0.48,1.53-1.13,2.88-1.95,4.05c-0.82,1.17-1.77,2.17-2.84,3
			c-1.07,0.83-2.19,1.51-3.36,2.05c-1.17,0.54-2.35,0.92-3.54,1.16c-1.19,0.24-2.31,0.36-3.36,0.36l17.81,15.39H52.36L34.58,99.35
			h-6.13v-8.53h19.29c1.07-0.09,2.05-0.31,2.94-0.67c0.89-0.36,1.65-0.85,2.3-1.46c0.64-0.61,1.14-1.35,1.49-2.21
			c0.35-0.86,0.52-1.85,0.52-2.97v-5.38c0-0.48-0.06-0.85-0.18-1.1c-0.12-0.25-0.27-0.44-0.46-0.56c-0.19-0.12-0.38-0.19-0.59-0.21
			c-0.21-0.02-0.4-0.03-0.57-0.03H25.04v38.04l38.79,38.79l38.32-38.32H70.67z"/>
	</g>
	
		<rect x="476.95" y="3.8" transform="matrix(0.7071 0.7071 -0.7071 0.7071 151.543 -339.9385)" class="st0" width="18.33" height="18.33"/>
	<g>
		<path d="M157.55,46.88v44.76h-14.19V25.4h16.37l14.38,20.82l14.38-20.82h16.37v66.24h-14.19V46.88l-16.56,23.94L157.55,46.88z"/>
		<path d="M223.51,91.64h-13.99V26.37h13.99V91.64z"/>
		<path class="st0" d="M267.52,46.89l19.38-20.51h22.95L279,59.01l30.86,32.63h-22.95l-19.38-20.51l-19.38,20.51h-22.95l30.86-32.63
			l-30.86-32.63h22.95L267.52,46.89z"/>
		<rect x="144.25" y="102.83" class="st1" width="364.51" height="16.08"/>
		<rect x="144.25" y="122.17" class="st0" width="364.51" height="4.82"/>
		<path d="M159.34,148.02c0,0.58-0.07,1.11-0.22,1.58c-0.14,0.47-0.34,0.88-0.57,1.23c-0.24,0.36-0.52,0.66-0.84,0.91
			c-0.32,0.25-0.65,0.46-0.99,0.61c-0.34,0.16-0.69,0.28-1.04,0.35c-0.35,0.08-0.68,0.11-1,0.11h-11.17v-2.96h11.17
			c0.56,0,0.99-0.17,1.3-0.5c0.31-0.33,0.46-0.78,0.46-1.34c0-0.27-0.04-0.52-0.12-0.75c-0.08-0.23-0.2-0.42-0.35-0.59
			c-0.15-0.17-0.34-0.3-0.56-0.39s-0.46-0.14-0.73-0.14h-6.66c-0.47,0-0.97-0.08-1.51-0.26c-0.54-0.17-1.05-0.45-1.51-0.82
			s-0.85-0.88-1.16-1.49c-0.31-0.61-0.46-1.36-0.46-2.25c0-0.89,0.15-1.63,0.46-2.25c0.31-0.61,0.69-1.11,1.16-1.49
			s0.97-0.66,1.51-0.83c0.54-0.17,1.05-0.26,1.51-0.26h9.85v2.96h-9.85c-0.55,0-0.98,0.17-1.29,0.51s-0.46,0.79-0.46,1.35
			c0,0.57,0.15,1.02,0.46,1.35c0.31,0.33,0.74,0.49,1.29,0.49h6.66h0.02c0.31,0.01,0.64,0.05,0.99,0.13c0.35,0.08,0.7,0.2,1.04,0.37
			c0.35,0.17,0.67,0.38,0.99,0.63c0.31,0.25,0.59,0.56,0.83,0.92c0.24,0.36,0.43,0.77,0.57,1.23
			C159.27,146.92,159.34,147.44,159.34,148.02z"/>
		<path d="M178.51,146.23c0,0.99-0.17,1.91-0.5,2.74c-0.33,0.83-0.8,1.55-1.39,2.16c-0.59,0.61-1.3,1.08-2.11,1.42
			s-1.7,0.51-2.66,0.51h-3.92c-0.96,0-1.84-0.17-2.66-0.51c-0.82-0.34-1.52-0.81-2.12-1.42c-0.59-0.61-1.06-1.33-1.4-2.16
			c-0.34-0.83-0.51-1.75-0.51-2.74v-3.12c0-0.98,0.17-1.9,0.51-2.73c0.34-0.84,0.8-1.56,1.4-2.16c0.59-0.6,1.3-1.07,2.12-1.42
			c0.82-0.34,1.7-0.51,2.66-0.51h3.92c0.96,0,1.84,0.17,2.66,0.51c0.81,0.34,1.52,0.81,2.11,1.42c0.59,0.6,1.06,1.32,1.39,2.16
			c0.33,0.84,0.5,1.75,0.5,2.73V146.23z M175.61,143.11c0-0.58-0.09-1.11-0.27-1.59s-0.44-0.88-0.77-1.22
			c-0.33-0.34-0.73-0.6-1.19-0.79c-0.46-0.19-0.97-0.28-1.53-0.28h-3.92c-0.56,0-1.08,0.09-1.54,0.28c-0.46,0.19-0.86,0.45-1.2,0.79
			c-0.33,0.34-0.59,0.74-0.77,1.22c-0.18,0.47-0.27,1-0.27,1.59v3.12c0,0.58,0.09,1.11,0.27,1.59c0.18,0.47,0.44,0.88,0.77,1.22
			c0.33,0.34,0.73,0.6,1.2,0.78s0.98,0.28,1.54,0.28h3.9c0.56,0,1.08-0.09,1.54-0.28c0.46-0.19,0.86-0.45,1.2-0.78
			c0.33-0.34,0.59-0.74,0.77-1.22s0.27-1,0.27-1.59V143.11z"/>
		<path d="M196.03,152.82h-13.21c-0.21,0-0.4-0.04-0.58-0.11c-0.18-0.08-0.33-0.18-0.46-0.31c-0.13-0.13-0.23-0.29-0.31-0.47
			c-0.07-0.18-0.11-0.38-0.11-0.59v-14.81h2.9v13.35h11.77V152.82z"/>
		<path d="M212.96,151.33c0,0.21-0.04,0.41-0.11,0.59c-0.07,0.18-0.18,0.34-0.31,0.47c-0.13,0.13-0.29,0.24-0.47,0.31
			c-0.18,0.08-0.37,0.11-0.57,0.11h-6.53c-0.62,0-1.24-0.07-1.87-0.21c-0.63-0.14-1.24-0.35-1.83-0.63
			c-0.59-0.28-1.15-0.65-1.67-1.08s-0.97-0.96-1.36-1.56s-0.7-1.29-0.92-2.07c-0.22-0.78-0.33-1.64-0.33-2.6v-8.15h2.9v8.15
			c0,0.83,0.11,1.54,0.34,2.11c0.23,0.58,0.51,1.06,0.86,1.44c0.35,0.39,0.73,0.69,1.15,0.91c0.42,0.22,0.81,0.38,1.19,0.49
			s0.71,0.17,0.99,0.2c0.29,0.03,0.47,0.04,0.56,0.04h5.09v-13.35h2.9V151.33z"/>
		<path d="M230.62,152.82h-10.44c-0.27,0-0.56-0.03-0.86-0.1c-0.31-0.06-0.61-0.17-0.91-0.3c-0.3-0.14-0.59-0.31-0.86-0.53
			c-0.27-0.22-0.52-0.48-0.73-0.78c-0.21-0.31-0.38-0.66-0.51-1.07c-0.13-0.41-0.19-0.86-0.19-1.37v-8c0-0.27,0.03-0.57,0.09-0.88
			s0.16-0.62,0.29-0.93c0.13-0.31,0.31-0.6,0.52-0.88c0.22-0.28,0.47-0.53,0.77-0.74c0.3-0.22,0.65-0.39,1.04-0.52
			c0.39-0.13,0.84-0.19,1.34-0.19h10.44v2.96h-10.44c-0.38,0-0.67,0.1-0.87,0.31c-0.2,0.21-0.3,0.51-0.3,0.91v7.98
			c0,0.38,0.1,0.67,0.31,0.88c0.2,0.21,0.49,0.31,0.86,0.31h10.44V152.82z"/>
		<path d="M236.28,152.82h-2.9v-16.3h2.9V152.82z"/>
		<path d="M256.42,146.23c0,0.99-0.17,1.91-0.5,2.74c-0.33,0.83-0.8,1.55-1.39,2.16c-0.59,0.61-1.3,1.08-2.11,1.42
			s-1.7,0.51-2.66,0.51h-3.92c-0.96,0-1.84-0.17-2.66-0.51c-0.82-0.34-1.52-0.81-2.12-1.42c-0.59-0.61-1.06-1.33-1.4-2.16
			c-0.34-0.83-0.51-1.75-0.51-2.74v-3.12c0-0.98,0.17-1.9,0.51-2.73c0.34-0.84,0.8-1.56,1.4-2.16c0.59-0.6,1.3-1.07,2.12-1.42
			c0.82-0.34,1.7-0.51,2.66-0.51h3.92c0.96,0,1.84,0.17,2.66,0.51c0.81,0.34,1.52,0.81,2.11,1.42s1.06,1.32,1.39,2.16
			c0.33,0.84,0.5,1.75,0.5,2.73V146.23z M253.52,143.11c0-0.58-0.09-1.11-0.27-1.59s-0.44-0.88-0.77-1.22
			c-0.33-0.34-0.73-0.6-1.19-0.79c-0.46-0.19-0.97-0.28-1.53-0.28h-3.92c-0.56,0-1.08,0.09-1.54,0.28c-0.46,0.19-0.86,0.45-1.2,0.79
			c-0.33,0.34-0.59,0.74-0.77,1.22c-0.18,0.47-0.27,1-0.27,1.59v3.12c0,0.58,0.09,1.11,0.27,1.59c0.18,0.47,0.44,0.88,0.77,1.22
			c0.33,0.34,0.73,0.6,1.2,0.78c0.46,0.19,0.98,0.28,1.54,0.28h3.9c0.56,0,1.08-0.09,1.54-0.28c0.46-0.19,0.86-0.45,1.2-0.78
			c0.33-0.34,0.59-0.74,0.77-1.22s0.27-1,0.27-1.59V143.11z"/>
		<path d="M275.24,151.56c0,0.21-0.04,0.41-0.12,0.59c-0.08,0.18-0.18,0.34-0.31,0.47c-0.13,0.13-0.28,0.24-0.46,0.31
			c-0.18,0.08-0.37,0.11-0.57,0.11c-0.18,0-0.36-0.03-0.54-0.1c-0.18-0.07-0.34-0.18-0.48-0.33l-10.58-11.28v11.48h-2.9v-15.04
			c0-0.3,0.08-0.58,0.25-0.82c0.17-0.25,0.38-0.43,0.64-0.55c0.27-0.11,0.56-0.14,0.85-0.08c0.29,0.06,0.54,0.2,0.75,0.42
			L272.34,148v-11.48h2.9V151.56z"/>
		<path d="M293.03,152.82h-10.44c-0.4,0-0.84-0.07-1.31-0.22c-0.48-0.14-0.92-0.38-1.32-0.71c-0.4-0.33-0.74-0.76-1.01-1.28
			c-0.27-0.53-0.41-1.17-0.41-1.94v-10.66c0-0.2,0.04-0.4,0.11-0.58c0.07-0.18,0.18-0.34,0.31-0.48c0.13-0.14,0.28-0.24,0.46-0.32
			c0.18-0.08,0.37-0.11,0.58-0.11h13.04v2.96h-11.6v9.2c0,0.39,0.1,0.68,0.3,0.89c0.2,0.2,0.49,0.31,0.88,0.31h10.42V152.82z
			 M291.73,146.16h-9.14v-2.98h9.14V146.16z"/>
		<path d="M311.12,148.02c0,0.58-0.07,1.11-0.22,1.58c-0.14,0.47-0.34,0.88-0.57,1.23c-0.24,0.36-0.52,0.66-0.84,0.91
			c-0.32,0.25-0.65,0.46-0.99,0.61c-0.34,0.16-0.69,0.28-1.04,0.35c-0.35,0.08-0.68,0.11-1,0.11h-11.17v-2.96h11.17
			c0.56,0,0.99-0.17,1.3-0.5c0.31-0.33,0.46-0.78,0.46-1.34c0-0.27-0.04-0.52-0.12-0.75c-0.08-0.23-0.2-0.42-0.35-0.59
			c-0.15-0.17-0.34-0.3-0.56-0.39s-0.46-0.14-0.73-0.14h-6.66c-0.47,0-0.97-0.08-1.51-0.26c-0.54-0.17-1.05-0.45-1.51-0.82
			s-0.85-0.88-1.16-1.49c-0.31-0.61-0.46-1.36-0.46-2.25c0-0.89,0.15-1.63,0.46-2.25c0.31-0.61,0.69-1.11,1.16-1.49
			s0.97-0.66,1.51-0.83c0.54-0.17,1.05-0.26,1.51-0.26h9.85v2.96h-9.85c-0.55,0-0.98,0.17-1.29,0.51s-0.46,0.79-0.46,1.35
			c0,0.57,0.15,1.02,0.46,1.35c0.31,0.33,0.74,0.49,1.29,0.49h6.66h0.02c0.31,0.01,0.64,0.05,0.99,0.13c0.35,0.08,0.7,0.2,1.04,0.37
			c0.35,0.17,0.67,0.38,0.99,0.63c0.31,0.25,0.59,0.56,0.83,0.92c0.24,0.36,0.43,0.77,0.57,1.23
			C311.04,146.92,311.12,147.44,311.12,148.02z"/>
		<path d="M335.26,152.82h-10.44c-0.4,0-0.84-0.07-1.31-0.22c-0.48-0.14-0.92-0.38-1.32-0.71c-0.4-0.33-0.74-0.76-1.01-1.28
			c-0.27-0.53-0.41-1.17-0.41-1.94v-10.66c0-0.2,0.04-0.4,0.11-0.58c0.07-0.18,0.18-0.34,0.31-0.48c0.13-0.14,0.28-0.24,0.46-0.32
			c0.18-0.08,0.37-0.11,0.58-0.11h13.04v2.96h-11.6v9.2c0,0.39,0.1,0.68,0.3,0.89c0.2,0.2,0.49,0.31,0.88,0.31h10.42V152.82z
			 M333.95,146.16h-9.14v-2.98h9.14V146.16z"/>
		<path d="M354.01,151.56c0,0.21-0.04,0.41-0.12,0.59s-0.18,0.34-0.31,0.47c-0.13,0.13-0.28,0.24-0.46,0.31
			c-0.18,0.08-0.37,0.11-0.57,0.11c-0.18,0-0.36-0.03-0.54-0.1c-0.18-0.07-0.34-0.18-0.48-0.33l-10.58-11.28v11.48h-2.9v-15.04
			c0-0.3,0.08-0.58,0.25-0.82c0.17-0.25,0.38-0.43,0.64-0.55c0.27-0.11,0.56-0.14,0.85-0.08c0.29,0.06,0.54,0.2,0.75,0.42
			L351.11,148v-11.48h2.9V151.56z"/>
		<path d="M379.09,152.82h-10.45c-0.27,0-0.55-0.03-0.86-0.1c-0.31-0.06-0.61-0.17-0.91-0.3c-0.3-0.14-0.59-0.31-0.86-0.53
			c-0.28-0.22-0.52-0.48-0.73-0.78c-0.21-0.31-0.38-0.66-0.51-1.07s-0.19-0.86-0.19-1.37v-8c0-0.27,0.03-0.57,0.09-0.88
			s0.16-0.62,0.29-0.93c0.13-0.31,0.31-0.6,0.52-0.88c0.22-0.28,0.47-0.53,0.77-0.74c0.3-0.22,0.65-0.39,1.04-0.52
			s0.84-0.19,1.34-0.19h10.45v2.96h-10.45c-0.38,0-0.67,0.1-0.87,0.31c-0.2,0.21-0.3,0.51-0.3,0.91v7.98c0,0.38,0.1,0.67,0.31,0.88
			c0.2,0.21,0.49,0.31,0.86,0.31h10.45V152.82z"/>
		<path d="M398.35,146.23c0,0.99-0.17,1.91-0.5,2.74c-0.33,0.83-0.8,1.55-1.39,2.16c-0.59,0.61-1.3,1.08-2.11,1.42
			c-0.81,0.34-1.7,0.51-2.66,0.51h-3.92c-0.96,0-1.84-0.17-2.66-0.51s-1.52-0.81-2.12-1.42c-0.59-0.61-1.06-1.33-1.4-2.16
			c-0.34-0.83-0.51-1.75-0.51-2.74v-3.12c0-0.98,0.17-1.9,0.51-2.73c0.34-0.84,0.8-1.56,1.4-2.16c0.59-0.6,1.3-1.07,2.12-1.42
			c0.82-0.34,1.7-0.51,2.66-0.51h3.92c0.96,0,1.84,0.17,2.66,0.51c0.81,0.34,1.52,0.81,2.11,1.42s1.06,1.32,1.39,2.16
			c0.33,0.84,0.5,1.75,0.5,2.73V146.23z M395.45,143.11c0-0.58-0.09-1.11-0.27-1.59c-0.18-0.47-0.44-0.88-0.77-1.22
			c-0.33-0.34-0.73-0.6-1.19-0.79c-0.46-0.19-0.97-0.28-1.53-0.28h-3.92c-0.56,0-1.08,0.09-1.54,0.28c-0.46,0.19-0.86,0.45-1.2,0.79
			c-0.33,0.34-0.59,0.74-0.77,1.22c-0.18,0.47-0.27,1-0.27,1.59v3.12c0,0.58,0.09,1.11,0.27,1.59c0.18,0.47,0.44,0.88,0.77,1.22
			c0.33,0.34,0.73,0.6,1.2,0.78s0.98,0.28,1.54,0.28h3.9c0.56,0,1.08-0.09,1.54-0.28s0.86-0.45,1.2-0.78
			c0.33-0.34,0.59-0.74,0.77-1.22c0.18-0.47,0.27-1,0.27-1.59V143.11z"/>
		<path d="M417.17,151.56c0,0.21-0.04,0.41-0.12,0.59s-0.18,0.34-0.31,0.47c-0.13,0.13-0.28,0.24-0.46,0.31
			c-0.18,0.08-0.37,0.11-0.57,0.11c-0.18,0-0.36-0.03-0.54-0.1c-0.18-0.07-0.34-0.18-0.48-0.33l-10.58-11.28v11.48h-2.89v-15.04
			c0-0.3,0.08-0.58,0.25-0.82c0.17-0.25,0.38-0.43,0.64-0.55c0.27-0.11,0.56-0.14,0.85-0.08c0.29,0.06,0.54,0.2,0.75,0.42
			L414.27,148v-11.48h2.9V151.56z"/>
		<path d="M434.83,152.82h-10.45c-0.27,0-0.55-0.03-0.86-0.1c-0.31-0.06-0.61-0.17-0.91-0.3c-0.3-0.14-0.59-0.31-0.86-0.53
			c-0.28-0.22-0.52-0.48-0.73-0.78c-0.21-0.31-0.38-0.66-0.51-1.07s-0.19-0.86-0.19-1.37v-8c0-0.27,0.03-0.57,0.09-0.88
			s0.16-0.62,0.29-0.93c0.13-0.31,0.31-0.6,0.52-0.88c0.22-0.28,0.47-0.53,0.77-0.74c0.3-0.22,0.65-0.39,1.04-0.52
			s0.84-0.19,1.34-0.19h10.45v2.96h-10.45c-0.38,0-0.67,0.1-0.87,0.31c-0.2,0.21-0.3,0.51-0.3,0.91v7.98c0,0.38,0.1,0.67,0.31,0.88
			c0.2,0.21,0.49,0.31,0.86,0.31h10.45V152.82z"/>
		<path d="M453.52,142c0,0.67-0.08,1.28-0.25,1.81c-0.16,0.53-0.38,1-0.66,1.4s-0.6,0.75-0.96,1.04c-0.36,0.29-0.74,0.53-1.14,0.71
			s-0.8,0.32-1.2,0.4c-0.41,0.08-0.79,0.12-1.14,0.12l6.05,5.33h-4.48l-6.04-5.33h-2.08v-2.96h6.55c0.36-0.03,0.7-0.11,1-0.23
			c0.3-0.12,0.56-0.29,0.78-0.51c0.22-0.21,0.39-0.47,0.51-0.77c0.12-0.3,0.18-0.64,0.18-1.03v-1.86c0-0.17-0.02-0.29-0.06-0.38
			c-0.04-0.09-0.09-0.15-0.16-0.19c-0.06-0.04-0.13-0.07-0.2-0.07c-0.07-0.01-0.13-0.01-0.19-0.01h-9.55v13.35h-2.89v-14.81
			c0-0.2,0.04-0.4,0.11-0.58c0.07-0.18,0.18-0.34,0.31-0.48c0.13-0.14,0.28-0.24,0.46-0.32c0.18-0.08,0.37-0.11,0.58-0.11h10.99
			c0.65,0,1.19,0.12,1.64,0.36c0.45,0.24,0.81,0.54,1.09,0.9c0.28,0.36,0.48,0.75,0.6,1.17c0.12,0.42,0.18,0.81,0.18,1.17V142z"/>
		<path d="M470.86,152.82h-10.44c-0.4,0-0.84-0.07-1.31-0.22c-0.47-0.14-0.92-0.38-1.32-0.71c-0.4-0.33-0.74-0.76-1.01-1.28
			c-0.27-0.53-0.41-1.17-0.41-1.94v-10.66c0-0.2,0.04-0.4,0.11-0.58c0.07-0.18,0.18-0.34,0.31-0.48c0.13-0.14,0.28-0.24,0.46-0.32
			c0.18-0.08,0.37-0.11,0.58-0.11h13.04v2.96h-11.6v9.2c0,0.39,0.1,0.68,0.3,0.89c0.2,0.2,0.49,0.31,0.88,0.31h10.42V152.82z
			 M469.56,146.16h-9.14v-2.98h9.14V146.16z"/>
		<path d="M488.09,139.47h-6.38v13.35h-2.9v-13.35h-6.39v-2.96h15.67V139.47z"/>
		<path d="M506.75,146.23c0,0.99-0.17,1.91-0.5,2.74c-0.33,0.83-0.8,1.55-1.39,2.16c-0.59,0.61-1.3,1.08-2.11,1.42
			c-0.81,0.34-1.7,0.51-2.66,0.51h-3.92c-0.96,0-1.84-0.17-2.66-0.51s-1.52-0.81-2.12-1.42c-0.59-0.61-1.06-1.33-1.4-2.16
			c-0.34-0.83-0.51-1.75-0.51-2.74v-3.12c0-0.98,0.17-1.9,0.51-2.73c0.34-0.84,0.8-1.56,1.4-2.16c0.59-0.6,1.3-1.07,2.12-1.42
			c0.82-0.34,1.7-0.51,2.66-0.51h3.92c0.96,0,1.84,0.17,2.66,0.51c0.81,0.34,1.52,0.81,2.11,1.42s1.06,1.32,1.39,2.16
			c0.33,0.84,0.5,1.75,0.5,2.73V146.23z M503.86,143.11c0-0.58-0.09-1.11-0.27-1.59c-0.18-0.47-0.44-0.88-0.77-1.22
			c-0.33-0.34-0.73-0.6-1.19-0.79c-0.46-0.19-0.97-0.28-1.53-0.28h-3.92c-0.56,0-1.08,0.09-1.54,0.28c-0.46,0.19-0.86,0.45-1.2,0.79
			c-0.33,0.34-0.59,0.74-0.77,1.22c-0.18,0.47-0.27,1-0.27,1.59v3.12c0,0.58,0.09,1.11,0.27,1.59c0.18,0.47,0.44,0.88,0.77,1.22
			c0.33,0.34,0.73,0.6,1.2,0.78s0.98,0.28,1.54,0.28h3.9c0.56,0,1.08-0.09,1.54-0.28s0.86-0.45,1.2-0.78
			c0.33-0.34,0.59-0.74,0.77-1.22c0.18-0.47,0.27-1,0.27-1.59V143.11z"/>
		<path d="M340.37,26c5.22,0,9.66,1.84,13.34,5.52c3.68,3.68,5.52,8.13,5.52,13.34c0,5.22-1.84,9.66-5.52,13.34
			c-3.68,3.68-8.13,5.52-13.34,5.52h-14.14v28.29h-14.14V26H340.37z M340.37,40.15h-14.14v9.43h14.14c1.29,0,2.4-0.46,3.32-1.39
			c0.93-0.93,1.39-2.03,1.39-3.32s-0.46-2.4-1.39-3.32C342.76,40.61,341.65,40.15,340.37,40.15z"/>
		<path d="M406.75,26l-4.71,14.14H376.1v9.43h21.21l-4.71,14.14h-16.5v14.14h30.64l-4.71,14.14h-40.07V26H406.75z"/>
		<path d="M437.39,26c5.22,0,9.66,1.84,13.34,5.52c3.68,3.68,5.52,8.13,5.52,13.34c0,5.22-1.84,9.66-5.52,13.34
			c-2.26,2.26-4.81,3.83-7.64,4.71l17.3,29.09h-16.45l-16.83-28.29h-3.87v28.29H409.1V26H437.39z M437.39,40.15h-14.14v9.43h14.14
			c1.29,0,2.4-0.46,3.32-1.39c0.93-0.93,1.39-2.03,1.39-3.32s-0.46-2.4-1.39-3.32C439.79,40.61,438.68,40.15,437.39,40.15z"/>
		<path d="M459.03,66.08V26h14.14v40.07c0,3.27,1.15,6.05,3.44,8.34c2.29,2.29,5.08,3.44,8.34,3.44c3.27,0,6.05-1.15,8.34-3.44
			c2.29-2.29,3.44-5.08,3.44-8.34V26h14.14v40.07c0,7.17-2.53,13.28-7.59,18.34s-11.17,7.59-18.34,7.59
			c-7.17,0-13.28-2.53-18.34-7.59S459.03,73.24,459.03,66.08z"/>
	</g>
</g>
</svg>
