<?xml version="1.0" encoding="utf-8"?>
<!-- Generator: Adobe Illustrator 26.5.0, SVG Export Plug-In . SVG Version: 6.00 Build 0)  -->
<svg version="1.1" id="Capa_1" xmlns="http://www.w3.org/2000/svg" xmlns:xlink="http://www.w3.org/1999/xlink" x="0px" y="0px"
	 viewBox="0 0 367.53 247.71" style="enable-background:new 0 0 367.53 247.71;" xml:space="preserve">
<style type="text/css">
	.st0{fill:#E20614;}
	.st1{fill:#FFED00;}
</style>
<g>
	<path d="M14.19,141.54v44.76H0v-66.24h16.37l14.38,20.82l14.38-20.82h16.37v66.24H47.31v-44.76l-16.56,23.94L14.19,141.54z"/>
	<path d="M80.15,186.3H66.17v-65.27h13.99V186.3z"/>
	<path class="st0" d="M124.17,141.55l19.38-20.51h22.95l-30.86,32.63l30.86,32.63h-22.95l-19.38-20.51l-19.38,20.51H81.83
		l30.86-32.63l-30.86-32.63h22.95L124.17,141.55z"/>
	
		<rect x="333.59" y="98.46" transform="matrix(0.7071 0.7071 -0.7071 0.7071 176.4895 -210.8449)" class="st0" width="18.33" height="18.33"/>
	<g>
		<path class="st0" d="M175.14,50.67v1.7h-29.92c-1.67,0-2.97,0.51-3.9,1.52c-0.94,1.01-1.4,2.36-1.4,4.02
			c0,1.69,0.47,3.03,1.4,4.01c0.93,0.98,2.24,1.47,3.9,1.47h20.22h0.07c0.95,0.02,1.95,0.15,3.01,0.39c1.06,0.24,2.11,0.6,3.16,1.1
			c1.05,0.5,2.05,1.12,2.99,1.88c0.95,0.76,1.79,1.66,2.52,2.72c0.73,1.06,1.31,2.28,1.74,3.65c0.32,1.02,0.52,2.14,0.6,3.36
			l10.72-10.72L175.14,50.67z"/>
		<polygon class="st0" points="75.72,48.76 58.71,65.77 75.72,82.78 		"/>
		<path class="st0" d="M131.53,92.05v-8.79h33.91c1.69,0,3-0.5,3.94-1.49c0.94-0.99,1.4-2.32,1.4-3.99c0-0.81-0.12-1.56-0.37-2.23
			c-0.25-0.68-0.6-1.26-1.06-1.76c-0.46-0.5-1.03-0.88-1.69-1.15c-0.67-0.27-1.4-0.41-2.21-0.41h-20.22c-1.42,0-2.95-0.25-4.6-0.76
			c-1.65-0.51-3.17-1.32-4.58-2.45c-1.41-1.13-2.58-2.6-3.52-4.43c-0.94-1.83-1.4-4.06-1.4-6.69c0-2.64,0.47-4.86,1.4-6.68
			c0.94-1.81,2.11-3.29,3.52-4.43c1.41-1.14,2.94-1.96,4.58-2.47c1.65-0.51,3.18-0.76,4.6-0.76h22.83L124.47,0L80.9,43.57h32.61
			c1.96,0,3.62,0.35,4.97,1.06c1.35,0.71,2.45,1.6,3.3,2.67c0.85,1.07,1.45,2.23,1.83,3.47c0.37,1.24,0.56,2.4,0.56,3.48v5.61
			c0,2.01-0.25,3.8-0.74,5.38c-0.5,1.58-1.17,2.97-2.01,4.18c-0.85,1.21-1.82,2.24-2.92,3.09c-1.1,0.86-2.26,1.56-3.47,2.11
			c-1.21,0.55-2.42,0.95-3.65,1.2c-1.23,0.25-2.38,0.37-3.47,0.37l18.36,15.86h-13.59L94.34,76.2h-6.32v-8.79h19.88
			c1.1-0.09,2.11-0.32,3.03-0.69c0.91-0.37,1.7-0.87,2.37-1.5c0.66-0.63,1.18-1.39,1.54-2.28c0.36-0.89,0.54-1.91,0.54-3.06v-5.54
			c0-0.5-0.06-0.87-0.19-1.13c-0.12-0.26-0.28-0.45-0.47-0.57c-0.19-0.12-0.39-0.2-0.61-0.22c-0.21-0.02-0.41-0.03-0.59-0.03H84.5
			v39.2l39.97,39.97l39.48-39.48H131.53z"/>
	</g>
	<rect x="0.89" y="197.49" class="st1" width="364.51" height="16.08"/>
	<rect x="0.89" y="216.83" class="st0" width="364.51" height="4.82"/>
	<g>
		<path d="M15.99,242.68c0,0.58-0.07,1.11-0.22,1.58c-0.14,0.47-0.34,0.88-0.57,1.23c-0.24,0.36-0.52,0.66-0.84,0.91
			c-0.32,0.25-0.65,0.46-0.99,0.61c-0.34,0.16-0.69,0.28-1.04,0.35c-0.35,0.08-0.68,0.11-1,0.11H0.16v-2.96h11.17
			c0.56,0,0.99-0.17,1.3-0.5c0.31-0.33,0.46-0.78,0.46-1.34c0-0.27-0.04-0.52-0.12-0.75c-0.08-0.23-0.2-0.42-0.35-0.59
			c-0.15-0.17-0.34-0.3-0.56-0.39s-0.46-0.14-0.73-0.14H4.67c-0.47,0-0.97-0.08-1.51-0.26c-0.54-0.17-1.05-0.45-1.51-0.82
			s-0.85-0.88-1.16-1.49c-0.31-0.61-0.46-1.36-0.46-2.25s0.15-1.63,0.46-2.25c0.31-0.61,0.69-1.11,1.16-1.49s0.97-0.66,1.51-0.83
			c0.54-0.17,1.05-0.26,1.51-0.26h9.85v2.96H4.67c-0.55,0-0.98,0.17-1.29,0.51s-0.46,0.79-0.46,1.35c0,0.57,0.15,1.02,0.46,1.35
			c0.31,0.33,0.74,0.49,1.29,0.49h6.66h0.02c0.31,0.01,0.64,0.05,0.99,0.13c0.35,0.08,0.7,0.2,1.04,0.37
			c0.35,0.17,0.67,0.38,0.99,0.63c0.31,0.25,0.59,0.56,0.83,0.92c0.24,0.36,0.43,0.77,0.57,1.23
			C15.91,241.58,15.99,242.1,15.99,242.68z"/>
		<path d="M35.15,240.89c0,0.99-0.17,1.91-0.5,2.74c-0.33,0.83-0.8,1.55-1.39,2.16c-0.59,0.61-1.3,1.08-2.11,1.42
			s-1.7,0.51-2.66,0.51h-3.92c-0.96,0-1.84-0.17-2.66-0.51c-0.82-0.34-1.52-0.81-2.12-1.42c-0.59-0.61-1.06-1.33-1.4-2.16
			c-0.34-0.83-0.51-1.75-0.51-2.74v-3.12c0-0.98,0.17-1.9,0.51-2.73c0.34-0.84,0.8-1.56,1.4-2.16c0.59-0.6,1.3-1.07,2.12-1.42
			c0.82-0.34,1.7-0.51,2.66-0.51h3.92c0.96,0,1.84,0.17,2.66,0.51c0.81,0.34,1.52,0.81,2.11,1.42s1.06,1.32,1.39,2.16
			c0.33,0.84,0.5,1.75,0.5,2.73V240.89z M32.25,237.77c0-0.58-0.09-1.11-0.27-1.59s-0.44-0.88-0.77-1.22
			c-0.33-0.34-0.73-0.6-1.19-0.79c-0.46-0.19-0.97-0.28-1.53-0.28h-3.92c-0.56,0-1.08,0.09-1.54,0.28c-0.46,0.19-0.86,0.45-1.2,0.79
			c-0.33,0.34-0.59,0.74-0.77,1.22c-0.18,0.47-0.27,1-0.27,1.59v3.12c0,0.58,0.09,1.11,0.27,1.59c0.18,0.47,0.44,0.88,0.77,1.22
			c0.33,0.34,0.73,0.6,1.2,0.78s0.98,0.28,1.54,0.28h3.9c0.56,0,1.08-0.09,1.54-0.28c0.46-0.19,0.86-0.45,1.2-0.78
			c0.33-0.34,0.59-0.74,0.77-1.22s0.27-1,0.27-1.59V237.77z"/>
		<path d="M52.68,247.48H39.47c-0.21,0-0.4-0.04-0.58-0.11c-0.18-0.08-0.33-0.18-0.46-0.31c-0.13-0.13-0.23-0.29-0.31-0.47
			c-0.07-0.18-0.11-0.38-0.11-0.59v-14.81h2.9v13.35h11.77V247.48z"/>
		<path d="M69.6,245.99c0,0.21-0.04,0.41-0.11,0.59c-0.07,0.18-0.18,0.34-0.31,0.47c-0.13,0.13-0.29,0.24-0.47,0.31
			c-0.18,0.08-0.37,0.11-0.57,0.11h-6.53c-0.62,0-1.24-0.07-1.87-0.21c-0.63-0.14-1.24-0.35-1.83-0.63
			c-0.59-0.28-1.15-0.65-1.67-1.08s-0.97-0.96-1.36-1.56s-0.7-1.29-0.92-2.07c-0.22-0.78-0.33-1.64-0.33-2.6v-8.15h2.9v8.15
			c0,0.83,0.11,1.54,0.34,2.11c0.23,0.58,0.51,1.06,0.86,1.44c0.35,0.39,0.73,0.69,1.15,0.91c0.42,0.22,0.81,0.38,1.19,0.49
			s0.71,0.17,0.99,0.2c0.29,0.03,0.47,0.04,0.56,0.04h5.09v-13.35h2.9V245.99z"/>
		<path d="M87.26,247.48H76.82c-0.27,0-0.56-0.03-0.86-0.1c-0.31-0.06-0.61-0.17-0.91-0.3c-0.3-0.14-0.59-0.31-0.86-0.53
			c-0.27-0.22-0.52-0.48-0.73-0.78c-0.21-0.31-0.38-0.66-0.51-1.07c-0.13-0.41-0.19-0.86-0.19-1.37v-8c0-0.27,0.03-0.57,0.09-0.88
			s0.16-0.62,0.29-0.93c0.13-0.31,0.31-0.6,0.52-0.88c0.22-0.28,0.47-0.53,0.77-0.74c0.3-0.22,0.65-0.39,1.04-0.52
			c0.39-0.13,0.84-0.19,1.34-0.19h10.44v2.96H76.82c-0.38,0-0.67,0.1-0.87,0.31c-0.2,0.21-0.3,0.51-0.3,0.91v7.98
			c0,0.38,0.1,0.67,0.31,0.88c0.2,0.21,0.49,0.31,0.86,0.31h10.44V247.48z"/>
		<path d="M92.92,247.48h-2.9v-16.3h2.9V247.48z"/>
		<path d="M113.06,240.89c0,0.99-0.17,1.91-0.5,2.74c-0.33,0.83-0.8,1.55-1.39,2.16c-0.59,0.61-1.3,1.08-2.11,1.42
			s-1.7,0.51-2.66,0.51h-3.92c-0.96,0-1.84-0.17-2.66-0.51c-0.82-0.34-1.52-0.81-2.12-1.42c-0.59-0.61-1.06-1.33-1.4-2.16
			c-0.34-0.83-0.51-1.75-0.51-2.74v-3.12c0-0.98,0.17-1.9,0.51-2.73c0.34-0.84,0.8-1.56,1.4-2.16c0.59-0.6,1.3-1.07,2.12-1.42
			c0.82-0.34,1.7-0.51,2.66-0.51h3.92c0.96,0,1.84,0.17,2.66,0.51c0.81,0.34,1.52,0.81,2.11,1.42s1.06,1.32,1.39,2.16
			c0.33,0.84,0.5,1.75,0.5,2.73V240.89z M110.17,237.77c0-0.58-0.09-1.11-0.27-1.59s-0.44-0.88-0.77-1.22
			c-0.33-0.34-0.73-0.6-1.19-0.79c-0.46-0.19-0.97-0.28-1.53-0.28h-3.92c-0.56,0-1.08,0.09-1.54,0.28c-0.46,0.19-0.86,0.45-1.2,0.79
			c-0.33,0.34-0.59,0.74-0.77,1.22c-0.18,0.47-0.27,1-0.27,1.59v3.12c0,0.58,0.09,1.11,0.27,1.59c0.18,0.47,0.44,0.88,0.77,1.22
			c0.33,0.34,0.73,0.6,1.2,0.78s0.98,0.28,1.54,0.28h3.9c0.56,0,1.08-0.09,1.54-0.28c0.46-0.19,0.86-0.45,1.2-0.78
			c0.33-0.34,0.59-0.74,0.77-1.22s0.27-1,0.27-1.59V237.77z"/>
		<path d="M131.88,246.22c0,0.21-0.04,0.41-0.12,0.59c-0.08,0.18-0.18,0.34-0.31,0.47c-0.13,0.13-0.28,0.24-0.46,0.31
			c-0.18,0.08-0.37,0.11-0.57,0.11c-0.18,0-0.36-0.03-0.54-0.1c-0.18-0.07-0.34-0.18-0.48-0.33L118.82,236v11.48h-2.9v-15.04
			c0-0.3,0.08-0.58,0.25-0.82c0.17-0.25,0.38-0.43,0.64-0.55c0.27-0.11,0.56-0.14,0.85-0.08c0.29,0.06,0.54,0.2,0.75,0.42
			l10.58,11.27v-11.48h2.9V246.22z"/>
		<path d="M149.68,247.48h-10.44c-0.4,0-0.84-0.07-1.31-0.22c-0.48-0.14-0.92-0.38-1.32-0.71c-0.4-0.33-0.74-0.76-1.01-1.28
			c-0.27-0.53-0.41-1.17-0.41-1.94v-10.66c0-0.2,0.04-0.4,0.11-0.58c0.07-0.18,0.18-0.34,0.31-0.48c0.13-0.14,0.28-0.24,0.46-0.32
			c0.18-0.08,0.37-0.11,0.58-0.11h13.04v2.96h-11.6v9.2c0,0.39,0.1,0.68,0.3,0.89c0.2,0.2,0.49,0.31,0.88,0.31h10.42V247.48z
			 M148.37,240.82h-9.14v-2.98h9.14V240.82z"/>
		<path d="M167.76,242.68c0,0.58-0.07,1.11-0.22,1.58c-0.14,0.47-0.34,0.88-0.57,1.23c-0.24,0.36-0.52,0.66-0.84,0.91
			c-0.32,0.25-0.65,0.46-0.99,0.61c-0.34,0.16-0.69,0.28-1.04,0.35c-0.35,0.08-0.68,0.11-1,0.11h-11.17v-2.96h11.17
			c0.56,0,0.99-0.17,1.3-0.5c0.31-0.33,0.46-0.78,0.46-1.34c0-0.27-0.04-0.52-0.12-0.75c-0.08-0.23-0.2-0.42-0.35-0.59
			c-0.15-0.17-0.34-0.3-0.56-0.39s-0.46-0.14-0.73-0.14h-6.66c-0.47,0-0.97-0.08-1.51-0.26c-0.54-0.17-1.05-0.45-1.51-0.82
			s-0.85-0.88-1.16-1.49c-0.31-0.61-0.46-1.36-0.46-2.25s0.15-1.63,0.46-2.25c0.31-0.61,0.69-1.11,1.16-1.49s0.97-0.66,1.51-0.83
			c0.54-0.17,1.05-0.26,1.51-0.26h9.85v2.96h-9.85c-0.55,0-0.98,0.17-1.29,0.51s-0.46,0.79-0.46,1.35c0,0.57,0.15,1.02,0.46,1.35
			c0.31,0.33,0.74,0.49,1.29,0.49h6.66h0.02c0.31,0.01,0.64,0.05,0.99,0.13c0.35,0.08,0.7,0.2,1.04,0.37
			c0.35,0.17,0.67,0.38,0.99,0.63c0.31,0.25,0.59,0.56,0.83,0.92c0.24,0.36,0.43,0.77,0.57,1.23
			C167.69,241.58,167.76,242.1,167.76,242.68z"/>
		<path d="M191.9,247.48h-10.44c-0.4,0-0.84-0.07-1.31-0.22c-0.48-0.14-0.92-0.38-1.32-0.71c-0.4-0.33-0.74-0.76-1.01-1.28
			c-0.27-0.53-0.41-1.17-0.41-1.94v-10.66c0-0.2,0.04-0.4,0.11-0.58c0.07-0.18,0.18-0.34,0.31-0.48c0.13-0.14,0.28-0.24,0.46-0.32
			c0.18-0.08,0.37-0.11,0.58-0.11h13.04v2.96h-11.6v9.2c0,0.39,0.1,0.68,0.3,0.89c0.2,0.2,0.49,0.31,0.88,0.31h10.42V247.48z
			 M190.6,240.82h-9.14v-2.98h9.14V240.82z"/>
		<path d="M210.65,246.22c0,0.21-0.04,0.41-0.12,0.59s-0.18,0.34-0.31,0.47c-0.13,0.13-0.28,0.24-0.46,0.31
			c-0.18,0.08-0.37,0.11-0.57,0.11c-0.18,0-0.36-0.03-0.54-0.1c-0.18-0.07-0.34-0.18-0.48-0.33L197.59,236v11.48h-2.9v-15.04
			c0-0.3,0.08-0.58,0.25-0.82c0.17-0.25,0.38-0.43,0.64-0.55c0.27-0.11,0.56-0.14,0.85-0.08c0.29,0.06,0.54,0.2,0.75,0.42
			l10.58,11.27v-11.48h2.9V246.22z"/>
		<path d="M235.73,247.48h-10.45c-0.27,0-0.55-0.03-0.86-0.1c-0.31-0.06-0.61-0.17-0.91-0.3c-0.3-0.14-0.59-0.31-0.86-0.53
			c-0.28-0.22-0.52-0.48-0.73-0.78c-0.21-0.31-0.38-0.66-0.51-1.07s-0.19-0.86-0.19-1.37v-8c0-0.27,0.03-0.57,0.09-0.88
			s0.16-0.62,0.29-0.93c0.13-0.31,0.31-0.6,0.52-0.88c0.22-0.28,0.47-0.53,0.77-0.74c0.3-0.22,0.65-0.39,1.04-0.52
			s0.84-0.19,1.34-0.19h10.45v2.96h-10.45c-0.38,0-0.67,0.1-0.87,0.31c-0.2,0.21-0.3,0.51-0.3,0.91v7.98c0,0.38,0.1,0.67,0.31,0.88
			c0.2,0.21,0.49,0.31,0.86,0.31h10.45V247.48z"/>
		<path d="M254.99,240.89c0,0.99-0.17,1.91-0.5,2.74c-0.33,0.83-0.8,1.55-1.39,2.16c-0.59,0.61-1.3,1.08-2.11,1.42
			c-0.81,0.34-1.7,0.51-2.66,0.51h-3.92c-0.96,0-1.84-0.17-2.66-0.51s-1.52-0.81-2.12-1.42c-0.59-0.61-1.06-1.33-1.4-2.16
			c-0.34-0.83-0.51-1.75-0.51-2.74v-3.12c0-0.98,0.17-1.9,0.51-2.73c0.34-0.84,0.8-1.56,1.4-2.16c0.59-0.6,1.3-1.07,2.12-1.42
			c0.82-0.34,1.7-0.51,2.66-0.51h3.92c0.96,0,1.84,0.17,2.66,0.51c0.81,0.34,1.52,0.81,2.11,1.42s1.06,1.32,1.39,2.16
			c0.33,0.84,0.5,1.75,0.5,2.73V240.89z M252.1,237.77c0-0.58-0.09-1.11-0.27-1.59c-0.18-0.47-0.44-0.88-0.77-1.22
			c-0.33-0.34-0.73-0.6-1.19-0.79c-0.46-0.19-0.97-0.28-1.53-0.28h-3.92c-0.56,0-1.08,0.09-1.54,0.28c-0.46,0.19-0.86,0.45-1.2,0.79
			c-0.33,0.34-0.59,0.74-0.77,1.22c-0.18,0.47-0.27,1-0.27,1.59v3.12c0,0.58,0.09,1.11,0.27,1.59c0.18,0.47,0.44,0.88,0.77,1.22
			c0.33,0.34,0.73,0.6,1.2,0.78s0.98,0.28,1.54,0.28h3.9c0.56,0,1.08-0.09,1.54-0.28s0.86-0.45,1.2-0.78
			c0.33-0.34,0.59-0.74,0.77-1.22c0.18-0.47,0.27-1,0.27-1.59V237.77z"/>
		<path d="M273.81,246.22c0,0.21-0.04,0.41-0.12,0.59s-0.18,0.34-0.31,0.47c-0.13,0.13-0.28,0.24-0.46,0.31
			c-0.18,0.08-0.37,0.11-0.57,0.11c-0.18,0-0.36-0.03-0.54-0.1c-0.18-0.07-0.34-0.18-0.48-0.33L260.75,236v11.48h-2.89v-15.04
			c0-0.3,0.08-0.58,0.25-0.82c0.17-0.25,0.38-0.43,0.64-0.55c0.27-0.11,0.56-0.14,0.85-0.08c0.29,0.06,0.54,0.2,0.75,0.42
			l10.58,11.27v-11.48h2.9V246.22z"/>
		<path d="M291.47,247.48h-10.45c-0.27,0-0.55-0.03-0.86-0.1c-0.31-0.06-0.61-0.17-0.91-0.3c-0.3-0.14-0.59-0.31-0.86-0.53
			c-0.28-0.22-0.52-0.48-0.73-0.78c-0.21-0.31-0.38-0.66-0.51-1.07s-0.19-0.86-0.19-1.37v-8c0-0.27,0.03-0.57,0.09-0.88
			s0.16-0.62,0.29-0.93c0.13-0.31,0.31-0.6,0.52-0.88c0.22-0.28,0.47-0.53,0.77-0.74c0.3-0.22,0.65-0.39,1.04-0.52
			s0.84-0.19,1.34-0.19h10.45v2.96h-10.45c-0.38,0-0.67,0.1-0.87,0.31c-0.2,0.21-0.3,0.51-0.3,0.91v7.98c0,0.38,0.1,0.67,0.31,0.88
			c0.2,0.21,0.49,0.31,0.86,0.31h10.45V247.48z"/>
		<path d="M310.17,236.66c0,0.67-0.08,1.28-0.25,1.81c-0.16,0.53-0.38,1-0.66,1.4s-0.6,0.75-0.96,1.04
			c-0.36,0.29-0.74,0.53-1.14,0.71s-0.8,0.32-1.2,0.4c-0.41,0.08-0.79,0.12-1.14,0.12l6.05,5.33h-4.48l-6.04-5.33h-2.08v-2.96h6.55
			c0.36-0.03,0.7-0.11,1-0.23c0.3-0.12,0.56-0.29,0.78-0.51c0.22-0.21,0.39-0.47,0.51-0.77c0.12-0.3,0.18-0.64,0.18-1.03v-1.86
			c0-0.17-0.02-0.29-0.06-0.38c-0.04-0.09-0.09-0.15-0.16-0.19c-0.06-0.04-0.13-0.07-0.2-0.07c-0.07-0.01-0.13-0.01-0.19-0.01h-9.55
			v13.35h-2.89v-14.81c0-0.2,0.04-0.4,0.11-0.58c0.07-0.18,0.18-0.34,0.31-0.48c0.13-0.14,0.28-0.24,0.46-0.32
			c0.18-0.08,0.37-0.11,0.58-0.11h10.99c0.65,0,1.19,0.12,1.64,0.36c0.45,0.24,0.81,0.54,1.09,0.9c0.28,0.36,0.48,0.75,0.6,1.17
			c0.12,0.42,0.18,0.81,0.18,1.17V236.66z"/>
		<path d="M327.51,247.48h-10.44c-0.4,0-0.84-0.07-1.31-0.22c-0.47-0.14-0.92-0.38-1.32-0.71c-0.4-0.33-0.74-0.76-1.01-1.28
			c-0.27-0.53-0.41-1.17-0.41-1.94v-10.66c0-0.2,0.04-0.4,0.11-0.58c0.07-0.18,0.18-0.34,0.31-0.48c0.13-0.14,0.28-0.24,0.46-0.32
			c0.18-0.08,0.37-0.11,0.58-0.11h13.04v2.96h-11.6v9.2c0,0.39,0.1,0.68,0.3,0.89c0.2,0.2,0.49,0.31,0.88,0.31h10.42V247.48z
			 M326.2,240.82h-9.14v-2.98h9.14V240.82z"/>
		<path d="M344.73,234.13h-6.38v13.35h-2.9v-13.35h-6.39v-2.96h15.67V234.13z"/>
		<path d="M363.4,240.89c0,0.99-0.17,1.91-0.5,2.74c-0.33,0.83-0.8,1.55-1.39,2.16c-0.59,0.61-1.3,1.08-2.11,1.42
			c-0.81,0.34-1.7,0.51-2.66,0.51h-3.92c-0.96,0-1.84-0.17-2.66-0.51s-1.52-0.81-2.12-1.42c-0.59-0.61-1.06-1.33-1.4-2.16
			c-0.34-0.83-0.51-1.75-0.51-2.74v-3.12c0-0.98,0.17-1.9,0.51-2.73c0.34-0.84,0.8-1.56,1.4-2.16c0.59-0.6,1.3-1.07,2.12-1.42
			c0.82-0.34,1.7-0.51,2.66-0.51h3.92c0.96,0,1.84,0.17,2.66,0.51c0.81,0.34,1.52,0.81,2.11,1.42s1.06,1.32,1.39,2.16
			c0.33,0.84,0.5,1.75,0.5,2.73V240.89z M360.5,237.77c0-0.58-0.09-1.11-0.27-1.59c-0.18-0.47-0.44-0.88-0.77-1.22
			c-0.33-0.34-0.73-0.6-1.19-0.79c-0.46-0.19-0.97-0.28-1.53-0.28h-3.92c-0.56,0-1.08,0.09-1.54,0.28c-0.46,0.19-0.86,0.45-1.2,0.79
			c-0.33,0.34-0.59,0.74-0.77,1.22c-0.18,0.47-0.27,1-0.27,1.59v3.12c0,0.58,0.09,1.11,0.27,1.59c0.18,0.47,0.44,0.88,0.77,1.22
			c0.33,0.34,0.73,0.6,1.2,0.78s0.98,0.28,1.54,0.28h3.9c0.56,0,1.08-0.09,1.54-0.28s0.86-0.45,1.2-0.78
			c0.33-0.34,0.59-0.74,0.77-1.22c0.18-0.47,0.27-1,0.27-1.59V237.77z"/>
	</g>
	<g>
		<path d="M197.01,120.66c5.22,0,9.66,1.84,13.34,5.52c3.68,3.68,5.52,8.13,5.52,13.34c0,5.22-1.84,9.66-5.52,13.34
			c-3.68,3.68-8.12,5.52-13.34,5.52h-14.14v28.29h-14.14v-66H197.01z M197.01,134.81h-14.14v9.43h14.14c1.29,0,2.4-0.46,3.32-1.39
			c0.93-0.93,1.39-2.03,1.39-3.32s-0.46-2.4-1.39-3.32C199.41,135.27,198.3,134.81,197.01,134.81z"/>
		<path d="M263.39,120.66l-4.71,14.14h-25.93v9.43h21.21l-4.71,14.14h-16.5v14.14h30.64l-4.71,14.14H218.6v-66H263.39z"/>
		<path d="M294.03,120.66c5.22,0,9.66,1.84,13.34,5.52c3.68,3.68,5.52,8.13,5.52,13.34c0,5.22-1.84,9.66-5.52,13.34
			c-2.26,2.26-4.81,3.83-7.64,4.71l17.3,29.09h-16.45l-16.83-28.29h-3.87v28.29h-14.14v-66H294.03z M294.03,134.81h-14.14v9.43
			h14.14c1.29,0,2.4-0.46,3.32-1.39c0.93-0.93,1.39-2.03,1.39-3.32s-0.46-2.4-1.39-3.32C296.43,135.27,295.32,134.81,294.03,134.81z
			"/>
		<path d="M315.67,160.74v-40.07h14.14v40.07c0,3.27,1.15,6.05,3.44,8.34c2.29,2.29,5.08,3.44,8.34,3.44c3.27,0,6.05-1.15,8.34-3.44
			c2.29-2.29,3.44-5.08,3.44-8.34v-40.07h14.14v40.07c0,7.17-2.53,13.28-7.59,18.34s-11.17,7.59-18.34,7.59s-13.28-2.53-18.34-7.59
			S315.67,167.9,315.67,160.74z"/>
	</g>
</g>
</svg>
